<mxfile host="app.diagrams.net" modified="2021-04-04T17:23:10.990Z" agent="5.0 (Windows NT 10.0; Win64; x64) AppleWebKit/537.36 (KHTML, like Gecko) Chrome/88.0.4324.150  Safari/537.36" etag="0-MudkxO8tT_0BJiZfv7" version="14.5.7" type="github">
  <diagram id="1P3oDNLEu6JYjWxT9ylu" name="Page-1">
    <mxGraphModel dx="1869" dy="490" grid="1" gridSize="10" guides="1" tooltips="1" connect="1" arrows="1" fold="1" page="1" pageScale="1" pageWidth="850" pageHeight="1100" math="0" shadow="0">
      <root>
        <mxCell id="0" />
        <mxCell id="1" parent="0" />
        <mxCell id="BaN6LKqBQSgXskJ5QQ7J-259" value="" style="rounded=1;whiteSpace=wrap;html=1;labelBackgroundColor=none;fontSize=12;fontColor=#000000;arcSize=2;" parent="1" vertex="1">
          <mxGeometry x="-45" y="12.5" width="868" height="983" as="geometry" />
        </mxCell>
        <mxCell id="6JLmWSIYkaWuWIYdrCiE-64" value="" style="ellipse;whiteSpace=wrap;html=1;aspect=fixed;fontSize=10;align=center;" parent="1" vertex="1">
          <mxGeometry x="477.5" y="884" width="110" height="110" as="geometry" />
        </mxCell>
        <mxCell id="6JLmWSIYkaWuWIYdrCiE-11" value="" style="rounded=1;whiteSpace=wrap;html=1;fontSize=10;align=center;dashed=1;" parent="1" vertex="1">
          <mxGeometry x="500" y="24" width="220" height="86" as="geometry" />
        </mxCell>
        <mxCell id="BaN6LKqBQSgXskJ5QQ7J-65" value="" style="rounded=0;whiteSpace=wrap;html=1;labelBackgroundColor=none;fontSize=12;fontColor=#000000;dashed=1;fontStyle=1" parent="1" vertex="1">
          <mxGeometry x="280" y="256" width="345" height="80" as="geometry" />
        </mxCell>
        <mxCell id="BaN6LKqBQSgXskJ5QQ7J-1" value="M5 DB&lt;br&gt;US" style="shape=cylinder3;whiteSpace=wrap;html=1;boundedLbl=1;backgroundOutline=1;size=15;fillColor=#f8cecc;strokeColor=#b85450;gradientColor=#ea6b66;fontStyle=1" parent="1" vertex="1">
          <mxGeometry x="650" y="24" width="60" height="80" as="geometry" />
        </mxCell>
        <mxCell id="BaN6LKqBQSgXskJ5QQ7J-36" style="edgeStyle=orthogonalEdgeStyle;rounded=0;orthogonalLoop=1;jettySize=auto;html=1;entryX=0.5;entryY=0;entryDx=0;entryDy=0;fontSize=12;fontColor=#000000;fontStyle=1" parent="1" source="BaN6LKqBQSgXskJ5QQ7J-4" target="BaN6LKqBQSgXskJ5QQ7J-16" edge="1">
          <mxGeometry relative="1" as="geometry" />
        </mxCell>
        <mxCell id="BaN6LKqBQSgXskJ5QQ7J-38" style="edgeStyle=orthogonalEdgeStyle;rounded=0;orthogonalLoop=1;jettySize=auto;html=1;fontSize=12;fontColor=#000000;fontStyle=1" parent="1" source="BaN6LKqBQSgXskJ5QQ7J-4" target="BaN6LKqBQSgXskJ5QQ7J-20" edge="1">
          <mxGeometry relative="1" as="geometry" />
        </mxCell>
        <mxCell id="BaN6LKqBQSgXskJ5QQ7J-63" value="&lt;span style=&quot;background-color: rgb(248 , 249 , 250)&quot;&gt;&amp;lt;&amp;lt;&lt;/span&gt;&lt;br style=&quot;background-color: rgb(248 , 249 , 250)&quot;&gt;&lt;span style=&quot;background-color: rgb(248 , 249 , 250)&quot;&gt;update &lt;br&gt;timestamp&lt;/span&gt;&lt;br style=&quot;background-color: rgb(248 , 249 , 250)&quot;&gt;&lt;span style=&quot;background-color: rgb(248 , 249 , 250)&quot;&gt;&amp;gt;&amp;gt;&lt;/span&gt;" style="edgeLabel;html=1;align=center;verticalAlign=middle;resizable=0;points=[];fontSize=12;fontColor=#000000;fontStyle=1" parent="BaN6LKqBQSgXskJ5QQ7J-38" vertex="1" connectable="0">
          <mxGeometry x="-0.1322" y="2" relative="1" as="geometry">
            <mxPoint x="29.5" y="-0.5" as="offset" />
          </mxGeometry>
        </mxCell>
        <mxCell id="BaN6LKqBQSgXskJ5QQ7J-64" value="&lt;span style=&quot;background-color: rgb(248 , 249 , 250)&quot;&gt;&amp;lt;&amp;lt;&lt;/span&gt;&lt;br style=&quot;background-color: rgb(248 , 249 , 250)&quot;&gt;&lt;span style=&quot;background-color: rgb(248 , 249 , 250)&quot;&gt;update &lt;br&gt;catalog&lt;/span&gt;&lt;br style=&quot;background-color: rgb(248 , 249 , 250)&quot;&gt;&lt;span style=&quot;background-color: rgb(248 , 249 , 250)&quot;&gt;&amp;gt;&amp;gt;&lt;/span&gt;" style="edgeLabel;html=1;align=center;verticalAlign=middle;resizable=0;points=[];fontSize=12;fontColor=#000000;fontStyle=1" parent="BaN6LKqBQSgXskJ5QQ7J-38" vertex="1" connectable="0">
          <mxGeometry x="-0.1322" y="2" relative="1" as="geometry">
            <mxPoint x="-110.5" y="-0.5" as="offset" />
          </mxGeometry>
        </mxCell>
        <mxCell id="BaN6LKqBQSgXskJ5QQ7J-4" value="" style="strokeColor=#dddddd;shadow=1;strokeWidth=1;rounded=1;absoluteArcSize=1;arcSize=2;fontStyle=1" parent="1" vertex="1">
          <mxGeometry x="294" y="266" width="150" height="60" as="geometry" />
        </mxCell>
        <mxCell id="BaN6LKqBQSgXskJ5QQ7J-5" value="&lt;font color=&quot;#000000&quot;&gt;GlobalCatalog&lt;br&gt;Synchronizer&lt;br&gt;&lt;/font&gt;" style="dashed=0;connectable=0;html=1;fillColor=#5184F3;strokeColor=none;shape=mxgraph.gcp2.hexIcon;prIcon=cloud_functions;part=1;labelPosition=right;verticalLabelPosition=middle;align=left;verticalAlign=middle;spacingLeft=5;fontColor=#999999;fontSize=12;fontStyle=1" parent="BaN6LKqBQSgXskJ5QQ7J-4" vertex="1">
          <mxGeometry y="0.5" width="44" height="39" relative="1" as="geometry">
            <mxPoint x="5" y="-19.5" as="offset" />
          </mxGeometry>
        </mxCell>
        <mxCell id="BaN6LKqBQSgXskJ5QQ7J-74" style="edgeStyle=orthogonalEdgeStyle;rounded=0;orthogonalLoop=1;jettySize=auto;html=1;startArrow=none;startFill=0;fontSize=12;fontColor=#000000;exitX=0.25;exitY=0;exitDx=0;exitDy=0;fontStyle=1;entryX=0.182;entryY=1.017;entryDx=0;entryDy=0;entryPerimeter=0;" parent="1" target="BaN6LKqBQSgXskJ5QQ7J-107" edge="1">
          <mxGeometry relative="1" as="geometry">
            <mxPoint x="216" y="643" as="sourcePoint" />
            <mxPoint x="215" y="566" as="targetPoint" />
            <Array as="points">
              <mxPoint x="216" y="653" />
              <mxPoint x="215" y="653" />
            </Array>
          </mxGeometry>
        </mxCell>
        <mxCell id="BaN6LKqBQSgXskJ5QQ7J-75" value="&amp;lt;&amp;lt;&lt;br&gt;Purge &lt;br&gt;Old Data&lt;br&gt;&amp;gt;&amp;gt;" style="edgeLabel;html=1;align=center;verticalAlign=middle;resizable=0;points=[];fontSize=12;fontColor=#000000;fontStyle=1" parent="BaN6LKqBQSgXskJ5QQ7J-74" vertex="1" connectable="0">
          <mxGeometry x="0.1208" y="-3" relative="1" as="geometry">
            <mxPoint x="-8.009999999999998" y="22" as="offset" />
          </mxGeometry>
        </mxCell>
        <mxCell id="BaN6LKqBQSgXskJ5QQ7J-6" value="Cloud Scheduler" style="html=1;fillColor=#5184F3;strokeColor=none;verticalAlign=top;labelPosition=center;verticalLabelPosition=bottom;align=center;fontSize=11;fontStyle=1;shape=mxgraph.gcp2.cloud_scheduler" parent="1" vertex="1">
          <mxGeometry x="24" y="637" width="35" height="40" as="geometry" />
        </mxCell>
        <mxCell id="6JLmWSIYkaWuWIYdrCiE-7" style="edgeStyle=orthogonalEdgeStyle;rounded=0;orthogonalLoop=1;jettySize=auto;html=1;fontSize=10;" parent="1" source="BaN6LKqBQSgXskJ5QQ7J-7" target="BaN6LKqBQSgXskJ5QQ7J-1" edge="1">
          <mxGeometry relative="1" as="geometry" />
        </mxCell>
        <mxCell id="BaN6LKqBQSgXskJ5QQ7J-7" value="US SDAPI&lt;br&gt;[GCP]" style="rounded=1;whiteSpace=wrap;html=1;gradientColor=#d5739d;fillColor=#e6d0de;strokeColor=#996185;fontStyle=1" parent="1" vertex="1">
          <mxGeometry x="510" y="44" width="80" height="40" as="geometry" />
        </mxCell>
        <mxCell id="BaN6LKqBQSgXskJ5QQ7J-11" value="Hourly" style="text;html=1;strokeColor=none;fillColor=none;align=center;verticalAlign=middle;whiteSpace=wrap;rounded=0;fontColor=#000000;fontStyle=1;fontSize=16;" parent="1" vertex="1">
          <mxGeometry x="20" y="246" width="40" height="20" as="geometry" />
        </mxCell>
        <mxCell id="BaN6LKqBQSgXskJ5QQ7J-16" value="" style="strokeColor=#dddddd;shadow=1;strokeWidth=1;rounded=1;absoluteArcSize=1;arcSize=2;fontSize=16;fontColor=#000000;labelBackgroundColor=none;fontStyle=1" parent="1" vertex="1">
          <mxGeometry x="195" y="429" width="110" height="60" as="geometry" />
        </mxCell>
        <mxCell id="BaN6LKqBQSgXskJ5QQ7J-17" value="&lt;font color=&quot;#000000&quot;&gt;Cloud&lt;br&gt;Storage&lt;/font&gt;" style="dashed=0;connectable=0;html=1;fillColor=#5184F3;strokeColor=none;shape=mxgraph.gcp2.hexIcon;prIcon=cloud_storage;part=1;labelPosition=right;verticalLabelPosition=middle;align=left;verticalAlign=middle;spacingLeft=5;fontColor=#999999;fontSize=12;fontStyle=1" parent="BaN6LKqBQSgXskJ5QQ7J-16" vertex="1">
          <mxGeometry y="0.5" width="44" height="39" relative="1" as="geometry">
            <mxPoint x="5" y="-19.5" as="offset" />
          </mxGeometry>
        </mxCell>
        <mxCell id="BaN6LKqBQSgXskJ5QQ7J-20" value="" style="strokeColor=#dddddd;shadow=1;strokeWidth=1;rounded=1;absoluteArcSize=1;arcSize=2;fontSize=16;fontColor=#000000;fontStyle=1" parent="1" vertex="1">
          <mxGeometry x="423" y="429" width="110" height="60" as="geometry" />
        </mxCell>
        <mxCell id="BaN6LKqBQSgXskJ5QQ7J-21" value="&lt;font color=&quot;#000000&quot;&gt;Cloud&lt;br&gt;Storage&lt;/font&gt;" style="dashed=0;connectable=0;html=1;fillColor=#5184F3;strokeColor=none;shape=mxgraph.gcp2.hexIcon;prIcon=cloud_storage;part=1;labelPosition=right;verticalLabelPosition=middle;align=left;verticalAlign=middle;spacingLeft=5;fontColor=#999999;fontSize=12;fontStyle=1" parent="BaN6LKqBQSgXskJ5QQ7J-20" vertex="1">
          <mxGeometry y="0.5" width="44" height="39" relative="1" as="geometry">
            <mxPoint x="5" y="-19.5" as="offset" />
          </mxGeometry>
        </mxCell>
        <mxCell id="BaN6LKqBQSgXskJ5QQ7J-39" value="&amp;lt;&amp;lt;&lt;br&gt;Check Last &lt;br&gt;Timestamp&lt;br&gt;&amp;gt;&amp;gt;" style="edgeStyle=orthogonalEdgeStyle;rounded=0;orthogonalLoop=1;jettySize=auto;html=1;entryX=0.75;entryY=0;entryDx=0;entryDy=0;fontSize=12;fontColor=#000000;exitX=0.5;exitY=1;exitDx=0;exitDy=0;fontStyle=1" parent="1" source="BaN6LKqBQSgXskJ5QQ7J-56" target="BaN6LKqBQSgXskJ5QQ7J-20" edge="1">
          <mxGeometry x="-0.2432" relative="1" as="geometry">
            <mxPoint x="560" y="349" as="sourcePoint" />
            <Array as="points">
              <mxPoint x="560" y="321" />
              <mxPoint x="560" y="376" />
              <mxPoint x="506" y="376" />
            </Array>
            <mxPoint as="offset" />
          </mxGeometry>
        </mxCell>
        <mxCell id="BaN6LKqBQSgXskJ5QQ7J-45" style="edgeStyle=orthogonalEdgeStyle;rounded=0;orthogonalLoop=1;jettySize=auto;html=1;fontSize=12;fontColor=#000000;fontStyle=1;exitX=0.027;exitY=0.567;exitDx=0;exitDy=0;exitPerimeter=0;entryX=0.5;entryY=1;entryDx=0;entryDy=0;" parent="1" source="BaN6LKqBQSgXskJ5QQ7J-119" target="BaN6LKqBQSgXskJ5QQ7J-7" edge="1">
          <mxGeometry relative="1" as="geometry">
            <mxPoint x="470" y="189" as="sourcePoint" />
            <mxPoint x="550" y="120" as="targetPoint" />
            <Array as="points">
              <mxPoint x="550" y="189" />
            </Array>
          </mxGeometry>
        </mxCell>
        <mxCell id="6JLmWSIYkaWuWIYdrCiE-24" value="If last scrape timestamp is null, fetch full dump &lt;br&gt;otherwise incremental dump" style="edgeLabel;html=1;align=center;verticalAlign=middle;resizable=0;points=[];fontSize=10;fontStyle=1" parent="BaN6LKqBQSgXskJ5QQ7J-45" vertex="1" connectable="0">
          <mxGeometry x="0.2911" y="1" relative="1" as="geometry">
            <mxPoint x="123" y="-0.6799999999999997" as="offset" />
          </mxGeometry>
        </mxCell>
        <mxCell id="BaN6LKqBQSgXskJ5QQ7J-56" value="&amp;lt;&amp;lt;QueryService&amp;gt;&amp;gt;" style="html=1;labelBackgroundColor=none;fontSize=12;fontColor=#000000;fontStyle=1" parent="1" vertex="1">
          <mxGeometry x="504" y="271" width="114" height="50" as="geometry" />
        </mxCell>
        <mxCell id="BaN6LKqBQSgXskJ5QQ7J-59" value="" style="endArrow=classic;startArrow=classic;html=1;fontSize=12;fontColor=#000000;exitX=1;exitY=0.5;exitDx=0;exitDy=0;fontStyle=1" parent="1" edge="1">
          <mxGeometry width="50" height="50" relative="1" as="geometry">
            <mxPoint x="447" y="298" as="sourcePoint" />
            <mxPoint x="503" y="298" as="targetPoint" />
            <Array as="points">
              <mxPoint x="503" y="298" />
            </Array>
          </mxGeometry>
        </mxCell>
        <mxCell id="BaN6LKqBQSgXskJ5QQ7J-83" style="edgeStyle=orthogonalEdgeStyle;rounded=0;orthogonalLoop=1;jettySize=auto;html=1;entryX=0;entryY=0.5;entryDx=0;entryDy=0;startArrow=none;startFill=0;fontSize=12;fontColor=#000000;fontStyle=1" parent="1" source="BaN6LKqBQSgXskJ5QQ7J-66" target="BaN6LKqBQSgXskJ5QQ7J-65" edge="1">
          <mxGeometry relative="1" as="geometry" />
        </mxCell>
        <mxCell id="0Yf_ADNaF7y4z-bWvYaU-1" value="&amp;lt;&amp;lt;&lt;br&gt;Cron &lt;br&gt;trigger&lt;br&gt;&amp;gt;&amp;gt;" style="edgeLabel;html=1;align=center;verticalAlign=middle;resizable=0;points=[];fontStyle=1" parent="BaN6LKqBQSgXskJ5QQ7J-83" vertex="1" connectable="0">
          <mxGeometry x="-0.4007" y="1" relative="1" as="geometry">
            <mxPoint as="offset" />
          </mxGeometry>
        </mxCell>
        <mxCell id="BaN6LKqBQSgXskJ5QQ7J-66" value="Cloud Scheduler" style="html=1;fillColor=#5184F3;strokeColor=none;verticalAlign=top;labelPosition=center;verticalLabelPosition=bottom;align=center;fontSize=11;fontStyle=1;shape=mxgraph.gcp2.cloud_scheduler" parent="1" vertex="1">
          <mxGeometry x="21" y="276" width="35" height="40" as="geometry" />
        </mxCell>
        <mxCell id="BaN6LKqBQSgXskJ5QQ7J-79" value="" style="strokeColor=#dddddd;shadow=1;strokeWidth=1;rounded=1;absoluteArcSize=1;arcSize=2;fontStyle=1" parent="1" vertex="1">
          <mxGeometry x="176" y="632" width="140" height="60" as="geometry" />
        </mxCell>
        <mxCell id="BaN6LKqBQSgXskJ5QQ7J-80" value="&lt;font color=&quot;#000000&quot;&gt;PurgeCatalog&lt;br&gt;Service&lt;br&gt;&lt;/font&gt;" style="dashed=0;connectable=0;html=1;fillColor=#5184F3;strokeColor=none;shape=mxgraph.gcp2.hexIcon;prIcon=cloud_functions;part=1;labelPosition=right;verticalLabelPosition=middle;align=left;verticalAlign=middle;spacingLeft=5;fontColor=#999999;fontSize=12;fontStyle=1" parent="BaN6LKqBQSgXskJ5QQ7J-79" vertex="1">
          <mxGeometry y="0.5" width="44" height="39" relative="1" as="geometry">
            <mxPoint x="5" y="-19.5" as="offset" />
          </mxGeometry>
        </mxCell>
        <mxCell id="BaN6LKqBQSgXskJ5QQ7J-84" value="Monthly" style="text;html=1;strokeColor=none;fillColor=none;align=center;verticalAlign=middle;whiteSpace=wrap;rounded=0;fontColor=#000000;fontStyle=1;fontSize=16;" parent="1" vertex="1">
          <mxGeometry x="20" y="607" width="40" height="20" as="geometry" />
        </mxCell>
        <mxCell id="BaN6LKqBQSgXskJ5QQ7J-89" style="edgeStyle=orthogonalEdgeStyle;rounded=0;orthogonalLoop=1;jettySize=auto;html=1;entryX=1;entryY=0.5;entryDx=0;entryDy=0;startArrow=none;startFill=0;fontSize=10;fontColor=#000000;fontStyle=1" parent="1" target="BaN6LKqBQSgXskJ5QQ7J-16" edge="1">
          <mxGeometry relative="1" as="geometry">
            <mxPoint x="370" y="643" as="sourcePoint" />
            <Array as="points">
              <mxPoint x="370" y="459" />
            </Array>
          </mxGeometry>
        </mxCell>
        <mxCell id="BaN6LKqBQSgXskJ5QQ7J-91" value="&amp;lt;&amp;lt;&lt;br style=&quot;font-size: 12px&quot;&gt;update&lt;br style=&quot;font-size: 12px&quot;&gt;timestamp&lt;br&gt;&amp;gt;&amp;gt;" style="edgeStyle=orthogonalEdgeStyle;rounded=0;orthogonalLoop=1;jettySize=auto;html=1;entryX=0.391;entryY=1.017;entryDx=0;entryDy=0;startArrow=none;startFill=0;fontSize=12;fontColor=#000000;fontStyle=1;entryPerimeter=0;" parent="1" target="BaN6LKqBQSgXskJ5QQ7J-109" edge="1">
          <mxGeometry x="-0.3071" relative="1" as="geometry">
            <mxPoint x="466" y="643" as="sourcePoint" />
            <mxPoint x="466" y="566" as="targetPoint" />
            <Array as="points" />
            <mxPoint as="offset" />
          </mxGeometry>
        </mxCell>
        <mxCell id="BaN6LKqBQSgXskJ5QQ7J-93" value="" style="rounded=0;whiteSpace=wrap;html=1;labelBackgroundColor=none;fontSize=12;fontColor=#000000;dashed=1;fontStyle=1" parent="1" vertex="1">
          <mxGeometry x="280" y="256" width="345" height="80" as="geometry" />
        </mxCell>
        <mxCell id="BaN6LKqBQSgXskJ5QQ7J-94" style="edgeStyle=orthogonalEdgeStyle;rounded=0;orthogonalLoop=1;jettySize=auto;html=1;entryX=0.5;entryY=0;entryDx=0;entryDy=0;fontSize=12;fontColor=#000000;fontStyle=1" parent="1" source="BaN6LKqBQSgXskJ5QQ7J-98" target="BaN6LKqBQSgXskJ5QQ7J-107" edge="1">
          <mxGeometry relative="1" as="geometry" />
        </mxCell>
        <mxCell id="BaN6LKqBQSgXskJ5QQ7J-95" style="edgeStyle=orthogonalEdgeStyle;rounded=0;orthogonalLoop=1;jettySize=auto;html=1;fontSize=12;fontColor=#000000;fontStyle=1" parent="1" source="BaN6LKqBQSgXskJ5QQ7J-98" target="BaN6LKqBQSgXskJ5QQ7J-109" edge="1">
          <mxGeometry relative="1" as="geometry" />
        </mxCell>
        <mxCell id="BaN6LKqBQSgXskJ5QQ7J-96" value="&lt;span style=&quot;background-color: rgb(248 , 249 , 250)&quot;&gt;&amp;lt;&amp;lt;&lt;/span&gt;&lt;br style=&quot;background-color: rgb(248 , 249 , 250)&quot;&gt;&lt;span style=&quot;background-color: rgb(248 , 249 , 250)&quot;&gt;update &lt;br&gt;timestamp&lt;/span&gt;&lt;br style=&quot;background-color: rgb(248 , 249 , 250)&quot;&gt;&lt;span style=&quot;background-color: rgb(248 , 249 , 250)&quot;&gt;&amp;gt;&amp;gt;&lt;/span&gt;" style="edgeLabel;html=1;align=center;verticalAlign=middle;resizable=0;points=[];fontSize=12;fontColor=#000000;fontStyle=1" parent="BaN6LKqBQSgXskJ5QQ7J-95" vertex="1" connectable="0">
          <mxGeometry x="-0.1322" y="2" relative="1" as="geometry">
            <mxPoint x="29.5" y="-0.5" as="offset" />
          </mxGeometry>
        </mxCell>
        <mxCell id="BaN6LKqBQSgXskJ5QQ7J-97" value="&lt;span style=&quot;background-color: rgb(248 , 249 , 250)&quot;&gt;&amp;lt;&amp;lt;&lt;/span&gt;&lt;br style=&quot;background-color: rgb(248 , 249 , 250)&quot;&gt;&lt;span style=&quot;background-color: rgb(248 , 249 , 250)&quot;&gt;update &lt;br&gt;catalog&lt;/span&gt;&lt;br style=&quot;background-color: rgb(248 , 249 , 250)&quot;&gt;&lt;span style=&quot;background-color: rgb(248 , 249 , 250)&quot;&gt;&amp;gt;&amp;gt;&lt;/span&gt;" style="edgeLabel;html=1;align=center;verticalAlign=middle;resizable=0;points=[];fontSize=12;fontColor=#000000;fontStyle=1" parent="BaN6LKqBQSgXskJ5QQ7J-95" vertex="1" connectable="0">
          <mxGeometry x="-0.1322" y="2" relative="1" as="geometry">
            <mxPoint x="-110.5" y="-0.5" as="offset" />
          </mxGeometry>
        </mxCell>
        <mxCell id="BaN6LKqBQSgXskJ5QQ7J-98" value="" style="strokeColor=#6c8ebf;shadow=1;strokeWidth=1;rounded=1;absoluteArcSize=1;arcSize=2;fontStyle=1;gradientColor=#7ea6e0;fillColor=#dae8fc;" parent="1" vertex="1">
          <mxGeometry x="294" y="266" width="150" height="60" as="geometry" />
        </mxCell>
        <mxCell id="BaN6LKqBQSgXskJ5QQ7J-99" value="&lt;font color=&quot;#000000&quot;&gt;GlobalCatalog&lt;br&gt;Synchronizer&lt;br&gt;&lt;/font&gt;" style="dashed=0;connectable=0;html=1;fillColor=#5184F3;strokeColor=none;shape=mxgraph.gcp2.hexIcon;prIcon=cloud_functions;part=1;labelPosition=right;verticalLabelPosition=middle;align=left;verticalAlign=middle;spacingLeft=5;fontColor=#999999;fontSize=12;fontStyle=1" parent="BaN6LKqBQSgXskJ5QQ7J-98" vertex="1">
          <mxGeometry y="0.5" width="44" height="39" relative="1" as="geometry">
            <mxPoint x="5" y="-19.5" as="offset" />
          </mxGeometry>
        </mxCell>
        <mxCell id="BaN6LKqBQSgXskJ5QQ7J-102" style="edgeStyle=orthogonalEdgeStyle;rounded=0;orthogonalLoop=1;jettySize=auto;html=1;entryX=1;entryY=0.5;entryDx=0;entryDy=0;startArrow=none;startFill=0;fontSize=12;fontColor=#000000;fontStyle=1" parent="1" source="BaN6LKqBQSgXskJ5QQ7J-133" target="BaN6LKqBQSgXskJ5QQ7J-119" edge="1">
          <mxGeometry relative="1" as="geometry">
            <mxPoint x="420" y="673" as="sourcePoint" />
            <mxPoint x="737" y="446" as="targetPoint" />
            <Array as="points">
              <mxPoint x="680" y="673" />
              <mxPoint x="680" y="200" />
            </Array>
          </mxGeometry>
        </mxCell>
        <mxCell id="BaN6LKqBQSgXskJ5QQ7J-103" value="&lt;span&gt;&amp;lt;&amp;lt;Fetch Latest &lt;br&gt;Dump&amp;gt;&amp;gt;&lt;/span&gt;" style="edgeLabel;html=1;align=center;verticalAlign=middle;resizable=0;points=[];fontSize=12;fontColor=#000000;fontStyle=1" parent="BaN6LKqBQSgXskJ5QQ7J-102" vertex="1" connectable="0">
          <mxGeometry x="-0.3563" y="1" relative="1" as="geometry">
            <mxPoint x="1" y="-135" as="offset" />
          </mxGeometry>
        </mxCell>
        <mxCell id="BaN6LKqBQSgXskJ5QQ7J-104" value="&lt;font style=&quot;font-size: 10px&quot;&gt;&amp;lt;&amp;lt;&lt;br&gt;Cron &lt;br&gt;trigger&lt;br&gt;&amp;gt;&amp;gt;&lt;/font&gt;" style="edgeStyle=orthogonalEdgeStyle;rounded=0;orthogonalLoop=1;jettySize=auto;html=1;startArrow=none;startFill=0;fontSize=12;fontColor=#000000;fontStyle=1;exitX=0.121;exitY=0.722;exitDx=0;exitDy=0;exitPerimeter=0;" parent="1" edge="1">
          <mxGeometry relative="1" as="geometry">
            <mxPoint x="60.02800000000002" y="659.7460000000001" as="sourcePoint" />
            <mxPoint x="173" y="660" as="targetPoint" />
            <Array as="points">
              <mxPoint x="120" y="660" />
              <mxPoint x="120" y="660" />
            </Array>
          </mxGeometry>
        </mxCell>
        <mxCell id="BaN6LKqBQSgXskJ5QQ7J-107" value="" style="strokeColor=#996185;shadow=1;strokeWidth=1;rounded=1;absoluteArcSize=1;arcSize=2;fontSize=16;labelBackgroundColor=none;fontStyle=1;gradientColor=#d5739d;fillColor=#e6d0de;" parent="1" vertex="1">
          <mxGeometry x="195" y="429" width="110" height="60" as="geometry" />
        </mxCell>
        <mxCell id="BaN6LKqBQSgXskJ5QQ7J-108" value="&lt;font color=&quot;#000000&quot;&gt;Cloud&lt;br&gt;Storage&lt;/font&gt;" style="dashed=0;connectable=0;html=1;fillColor=#5184F3;strokeColor=none;shape=mxgraph.gcp2.hexIcon;prIcon=cloud_storage;part=1;labelPosition=right;verticalLabelPosition=middle;align=left;verticalAlign=middle;spacingLeft=5;fontColor=#999999;fontSize=12;fontStyle=1" parent="BaN6LKqBQSgXskJ5QQ7J-107" vertex="1">
          <mxGeometry y="0.5" width="44" height="39" relative="1" as="geometry">
            <mxPoint x="5" y="-19.5" as="offset" />
          </mxGeometry>
        </mxCell>
        <mxCell id="BaN6LKqBQSgXskJ5QQ7J-109" value="" style="strokeColor=#996185;shadow=1;strokeWidth=1;rounded=1;absoluteArcSize=1;arcSize=2;fontSize=16;fontStyle=1;gradientColor=#d5739d;fillColor=#e6d0de;" parent="1" vertex="1">
          <mxGeometry x="423" y="429" width="110" height="60" as="geometry" />
        </mxCell>
        <mxCell id="BaN6LKqBQSgXskJ5QQ7J-110" value="&lt;font color=&quot;#000000&quot;&gt;Cloud&lt;br&gt;Storage&lt;/font&gt;" style="dashed=0;connectable=0;html=1;fillColor=#5184F3;strokeColor=none;shape=mxgraph.gcp2.hexIcon;prIcon=cloud_storage;part=1;labelPosition=right;verticalLabelPosition=middle;align=left;verticalAlign=middle;spacingLeft=5;fontColor=#999999;fontSize=12;fontStyle=1" parent="BaN6LKqBQSgXskJ5QQ7J-109" vertex="1">
          <mxGeometry y="0.5" width="44" height="39" relative="1" as="geometry">
            <mxPoint x="5" y="-19.5" as="offset" />
          </mxGeometry>
        </mxCell>
        <mxCell id="BaN6LKqBQSgXskJ5QQ7J-111" value="&amp;lt;&amp;lt;&lt;br&gt;Check Last &lt;br&gt;Timestamp&lt;br&gt;&amp;gt;&amp;gt;" style="edgeStyle=orthogonalEdgeStyle;rounded=0;orthogonalLoop=1;jettySize=auto;html=1;entryX=0.75;entryY=0;entryDx=0;entryDy=0;fontSize=12;fontColor=#000000;exitX=0.5;exitY=1;exitDx=0;exitDy=0;fontStyle=1" parent="1" source="BaN6LKqBQSgXskJ5QQ7J-123" target="BaN6LKqBQSgXskJ5QQ7J-109" edge="1">
          <mxGeometry x="-0.2432" relative="1" as="geometry">
            <mxPoint x="560" y="349" as="sourcePoint" />
            <Array as="points">
              <mxPoint x="560" y="321" />
              <mxPoint x="560" y="376" />
              <mxPoint x="506" y="376" />
            </Array>
            <mxPoint as="offset" />
          </mxGeometry>
        </mxCell>
        <mxCell id="BaN6LKqBQSgXskJ5QQ7J-114" value="Bucket: &lt;br style=&quot;font-size: 10px&quot;&gt;US_Global_Catalog" style="text;html=1;strokeColor=none;fillColor=none;align=center;verticalAlign=middle;whiteSpace=wrap;rounded=0;fontSize=10;fontColor=#000000;fontStyle=1" parent="1" vertex="1">
          <mxGeometry x="230" y="500" width="120" height="8" as="geometry" />
        </mxCell>
        <mxCell id="BaN6LKqBQSgXskJ5QQ7J-115" value="Bucket: &lt;br style=&quot;font-size: 10px&quot;&gt;US_Last_Scrape_TS" style="text;html=1;strokeColor=none;fillColor=none;align=center;verticalAlign=middle;whiteSpace=wrap;rounded=0;fontSize=10;fontColor=#000000;fontStyle=1" parent="1" vertex="1">
          <mxGeometry x="490" y="494" width="120" height="20" as="geometry" />
        </mxCell>
        <mxCell id="BaN6LKqBQSgXskJ5QQ7J-119" value="" style="strokeColor=#6c8ebf;shadow=1;strokeWidth=1;rounded=1;absoluteArcSize=1;arcSize=2;fontStyle=1;gradientColor=#7ea6e0;fillColor=#dae8fc;align=center;" parent="1" vertex="1">
          <mxGeometry x="467.5" y="180" width="165" height="40" as="geometry" />
        </mxCell>
        <mxCell id="BaN6LKqBQSgXskJ5QQ7J-120" value="&lt;div style=&quot;text-align: center&quot;&gt;&lt;span style=&quot;color: rgb(0 , 0 , 0)&quot;&gt;M5DB&lt;/span&gt;&lt;/div&gt;&lt;div style=&quot;text-align: center&quot;&gt;&lt;span style=&quot;color: rgb(0 , 0 , 0)&quot;&gt;Query&lt;/span&gt;&lt;span style=&quot;color: rgb(0 , 0 , 0)&quot;&gt;Service&lt;/span&gt;&lt;/div&gt;" style="dashed=0;connectable=0;html=1;fillColor=#5184F3;strokeColor=none;shape=mxgraph.gcp2.hexIcon;prIcon=cloud_functions;part=1;labelPosition=right;verticalLabelPosition=middle;align=left;verticalAlign=middle;spacingLeft=5;fontColor=#999999;fontSize=12;fontStyle=1" parent="BaN6LKqBQSgXskJ5QQ7J-119" vertex="1">
          <mxGeometry y="0.5" width="44" height="39" relative="1" as="geometry">
            <mxPoint x="5" y="-19.5" as="offset" />
          </mxGeometry>
        </mxCell>
        <mxCell id="BaN6LKqBQSgXskJ5QQ7J-123" value="&amp;lt;&amp;lt;QueryService&amp;gt;&amp;gt;" style="html=1;labelBackgroundColor=none;fontSize=12;fontStyle=1;gradientColor=#b3b3b3;fillColor=#f5f5f5;strokeColor=#666666;" parent="1" vertex="1">
          <mxGeometry x="504" y="271" width="114" height="50" as="geometry" />
        </mxCell>
        <mxCell id="BaN6LKqBQSgXskJ5QQ7J-124" value="" style="endArrow=classic;startArrow=classic;html=1;fontSize=12;fontColor=#000000;exitX=1;exitY=0.5;exitDx=0;exitDy=0;fontStyle=1" parent="1" edge="1">
          <mxGeometry width="50" height="50" relative="1" as="geometry">
            <mxPoint x="447" y="298" as="sourcePoint" />
            <mxPoint x="503" y="298" as="targetPoint" />
            <Array as="points">
              <mxPoint x="503" y="298" />
            </Array>
          </mxGeometry>
        </mxCell>
        <mxCell id="BaN6LKqBQSgXskJ5QQ7J-176" style="edgeStyle=orthogonalEdgeStyle;rounded=0;orthogonalLoop=1;jettySize=auto;html=1;entryX=0;entryY=0.5;entryDx=0;entryDy=0;startArrow=none;startFill=0;fontSize=12;fontColor=#000000;" parent="1" source="BaN6LKqBQSgXskJ5QQ7J-127" target="BaN6LKqBQSgXskJ5QQ7J-133" edge="1">
          <mxGeometry relative="1" as="geometry" />
        </mxCell>
        <mxCell id="BaN6LKqBQSgXskJ5QQ7J-127" value="" style="strokeColor=#6c8ebf;shadow=1;strokeWidth=1;rounded=1;absoluteArcSize=1;arcSize=2;fontStyle=1;gradientColor=#7ea6e0;fillColor=#dae8fc;" parent="1" vertex="1">
          <mxGeometry x="176" y="632" width="140" height="60" as="geometry" />
        </mxCell>
        <mxCell id="BaN6LKqBQSgXskJ5QQ7J-128" value="&lt;font color=&quot;#000000&quot;&gt;PurgeCatalog&lt;br&gt;Service&lt;br&gt;&lt;/font&gt;" style="dashed=0;connectable=0;html=1;fillColor=#5184F3;strokeColor=none;shape=mxgraph.gcp2.hexIcon;prIcon=cloud_functions;part=1;labelPosition=right;verticalLabelPosition=middle;align=left;verticalAlign=middle;spacingLeft=5;fontColor=#999999;fontSize=12;fontStyle=1" parent="BaN6LKqBQSgXskJ5QQ7J-127" vertex="1">
          <mxGeometry y="0.5" width="44" height="39" relative="1" as="geometry">
            <mxPoint x="5" y="-19.5" as="offset" />
          </mxGeometry>
        </mxCell>
        <mxCell id="BaN6LKqBQSgXskJ5QQ7J-133" value="" style="strokeColor=#6c8ebf;shadow=1;strokeWidth=1;rounded=1;absoluteArcSize=1;arcSize=2;fontStyle=1;gradientColor=#7ea6e0;fillColor=#dae8fc;" parent="1" vertex="1">
          <mxGeometry x="360" y="632" width="170" height="60" as="geometry" />
        </mxCell>
        <mxCell id="BaN6LKqBQSgXskJ5QQ7J-134" value="&lt;font color=&quot;#000000&quot;&gt;UpdateCatalog&lt;br&gt;Service&lt;br&gt;&lt;/font&gt;" style="dashed=0;connectable=0;html=1;fillColor=#5184F3;strokeColor=none;shape=mxgraph.gcp2.hexIcon;prIcon=cloud_functions;part=1;labelPosition=right;verticalLabelPosition=middle;align=left;verticalAlign=middle;spacingLeft=5;fontColor=#999999;fontSize=12;fontStyle=1" parent="BaN6LKqBQSgXskJ5QQ7J-133" vertex="1">
          <mxGeometry y="0.5" width="44" height="39" relative="1" as="geometry">
            <mxPoint x="5" y="-19.5" as="offset" />
          </mxGeometry>
        </mxCell>
        <mxCell id="BaN6LKqBQSgXskJ5QQ7J-260" value="" style="endArrow=none;dashed=1;html=1;dashPattern=1 3;strokeWidth=2;fontSize=12;fontColor=#000000;" parent="1" edge="1">
          <mxGeometry width="50" height="50" relative="1" as="geometry">
            <mxPoint x="-41" y="130" as="sourcePoint" />
            <mxPoint x="819" y="130" as="targetPoint" />
          </mxGeometry>
        </mxCell>
        <mxCell id="BaN6LKqBQSgXskJ5QQ7J-261" value="" style="endArrow=none;dashed=1;html=1;dashPattern=1 3;strokeWidth=2;fontSize=12;fontColor=#000000;" parent="1" edge="1">
          <mxGeometry width="50" height="50" relative="1" as="geometry">
            <mxPoint x="-43" y="541" as="sourcePoint" />
            <mxPoint x="817" y="541" as="targetPoint" />
          </mxGeometry>
        </mxCell>
        <mxCell id="6JLmWSIYkaWuWIYdrCiE-3" style="edgeStyle=orthogonalEdgeStyle;rounded=0;orthogonalLoop=1;jettySize=auto;html=1;fontSize=12;fontColor=#000000;fontStyle=1;entryX=0.567;entryY=1.053;entryDx=0;entryDy=0;entryPerimeter=0;" parent="1" target="BaN6LKqBQSgXskJ5QQ7J-119" edge="1">
          <mxGeometry relative="1" as="geometry">
            <mxPoint x="561" y="240" as="targetPoint" />
            <mxPoint x="560" y="268" as="sourcePoint" />
            <Array as="points">
              <mxPoint x="561" y="268" />
            </Array>
          </mxGeometry>
        </mxCell>
        <mxCell id="6JLmWSIYkaWuWIYdrCiE-12" value="" style="rounded=1;whiteSpace=wrap;html=1;fontSize=10;align=center;dashed=1;" parent="1" vertex="1">
          <mxGeometry x="377.5" y="24" width="100" height="86" as="geometry" />
        </mxCell>
        <mxCell id="6JLmWSIYkaWuWIYdrCiE-14" value="Source 2" style="text;html=1;strokeColor=none;fillColor=none;align=center;verticalAlign=middle;whiteSpace=wrap;rounded=0;dashed=1;fontSize=10;fontStyle=1" parent="1" vertex="1">
          <mxGeometry x="412.5" y="86" width="65" height="20" as="geometry" />
        </mxCell>
        <mxCell id="6JLmWSIYkaWuWIYdrCiE-15" value="Source 1" style="text;html=1;strokeColor=none;fillColor=none;align=center;verticalAlign=middle;whiteSpace=wrap;rounded=0;dashed=1;fontSize=10;fontStyle=1" parent="1" vertex="1">
          <mxGeometry x="577.5" y="85" width="65" height="20" as="geometry" />
        </mxCell>
        <mxCell id="6JLmWSIYkaWuWIYdrCiE-16" value="" style="rounded=1;whiteSpace=wrap;html=1;fontSize=10;align=center;dashed=1;" parent="1" vertex="1">
          <mxGeometry x="250" y="24" width="100" height="86" as="geometry" />
        </mxCell>
        <mxCell id="6JLmWSIYkaWuWIYdrCiE-17" value="" style="rounded=1;whiteSpace=wrap;html=1;fontSize=10;align=center;dashed=1;" parent="1" vertex="1">
          <mxGeometry x="120" y="24" width="100" height="86" as="geometry" />
        </mxCell>
        <mxCell id="6JLmWSIYkaWuWIYdrCiE-18" value="Source 3" style="text;html=1;strokeColor=none;fillColor=none;align=center;verticalAlign=middle;whiteSpace=wrap;rounded=0;dashed=1;fontSize=10;fontStyle=1" parent="1" vertex="1">
          <mxGeometry x="283" y="87" width="65" height="20" as="geometry" />
        </mxCell>
        <mxCell id="6JLmWSIYkaWuWIYdrCiE-19" value="Source N" style="text;html=1;strokeColor=none;fillColor=none;align=center;verticalAlign=middle;whiteSpace=wrap;rounded=0;dashed=1;fontSize=10;fontStyle=1" parent="1" vertex="1">
          <mxGeometry x="155" y="88" width="65" height="20" as="geometry" />
        </mxCell>
        <mxCell id="6JLmWSIYkaWuWIYdrCiE-21" value="MetaData&lt;br&gt;Source" style="rounded=1;whiteSpace=wrap;html=1;gradientColor=#d5739d;fillColor=#e6d0de;strokeColor=#996185;fontStyle=1" parent="1" vertex="1">
          <mxGeometry x="387.5" y="45" width="80" height="40" as="geometry" />
        </mxCell>
        <mxCell id="6JLmWSIYkaWuWIYdrCiE-22" value="MetaData&lt;br&gt;Source" style="rounded=1;whiteSpace=wrap;html=1;gradientColor=#d5739d;fillColor=#e6d0de;strokeColor=#996185;fontStyle=1" parent="1" vertex="1">
          <mxGeometry x="260" y="47" width="80" height="40" as="geometry" />
        </mxCell>
        <mxCell id="6JLmWSIYkaWuWIYdrCiE-23" value="MetaData&lt;br&gt;Source" style="rounded=1;whiteSpace=wrap;html=1;gradientColor=#d5739d;fillColor=#e6d0de;strokeColor=#996185;fontStyle=1" parent="1" vertex="1">
          <mxGeometry x="131" y="47" width="80" height="40" as="geometry" />
        </mxCell>
        <mxCell id="6JLmWSIYkaWuWIYdrCiE-25" value="1" style="ellipse;whiteSpace=wrap;html=1;aspect=fixed;fontSize=10;align=center;fontStyle=1;fillColor=#1ba1e2;strokeColor=#006EAF;fontColor=#ffffff;" parent="1" vertex="1">
          <mxGeometry x="190" y="266" width="20" height="20" as="geometry" />
        </mxCell>
        <mxCell id="6JLmWSIYkaWuWIYdrCiE-27" value="2" style="ellipse;whiteSpace=wrap;html=1;aspect=fixed;fontSize=10;align=center;fontStyle=1;fillColor=#1ba1e2;strokeColor=#006EAF;fontColor=#ffffff;" parent="1" vertex="1">
          <mxGeometry x="467.5" y="271" width="20" height="20" as="geometry" />
        </mxCell>
        <mxCell id="6JLmWSIYkaWuWIYdrCiE-28" value="4" style="ellipse;whiteSpace=wrap;html=1;aspect=fixed;fontSize=10;align=center;fontStyle=1;fillColor=#1ba1e2;strokeColor=#006EAF;fontColor=#ffffff;" parent="1" vertex="1">
          <mxGeometry x="570" y="226" width="20" height="20" as="geometry" />
        </mxCell>
        <mxCell id="6JLmWSIYkaWuWIYdrCiE-29" value="5" style="ellipse;whiteSpace=wrap;html=1;aspect=fixed;fontSize=10;align=center;fontStyle=1;fillColor=#1ba1e2;strokeColor=#006EAF;fontColor=#ffffff;" parent="1" vertex="1">
          <mxGeometry x="520" y="150" width="20" height="20" as="geometry" />
        </mxCell>
        <mxCell id="6JLmWSIYkaWuWIYdrCiE-31" value="6" style="ellipse;whiteSpace=wrap;html=1;aspect=fixed;fontSize=10;align=center;fontStyle=1;fillColor=#1ba1e2;strokeColor=#006EAF;fontColor=#ffffff;" parent="1" vertex="1">
          <mxGeometry x="260" y="400" width="20" height="20" as="geometry" />
        </mxCell>
        <mxCell id="6JLmWSIYkaWuWIYdrCiE-36" value="7" style="ellipse;whiteSpace=wrap;html=1;aspect=fixed;fontSize=10;align=center;fontStyle=1;fillColor=#1ba1e2;strokeColor=#006EAF;fontColor=#ffffff;" parent="1" vertex="1">
          <mxGeometry x="447.5" y="400" width="20" height="20" as="geometry" />
        </mxCell>
        <mxCell id="6JLmWSIYkaWuWIYdrCiE-37" value="3" style="ellipse;whiteSpace=wrap;html=1;aspect=fixed;fontSize=10;align=center;fontStyle=1;fillColor=#1ba1e2;strokeColor=#006EAF;fontColor=#ffffff;" parent="1" vertex="1">
          <mxGeometry x="513" y="400" width="20" height="20" as="geometry" />
        </mxCell>
        <mxCell id="6JLmWSIYkaWuWIYdrCiE-38" value="8" style="ellipse;whiteSpace=wrap;html=1;aspect=fixed;fontSize=10;align=center;fontStyle=1;fillColor=#1ba1e2;strokeColor=#006EAF;fontColor=#ffffff;" parent="1" vertex="1">
          <mxGeometry x="78" y="632" width="20" height="20" as="geometry" />
        </mxCell>
        <mxCell id="6JLmWSIYkaWuWIYdrCiE-39" value="9" style="ellipse;whiteSpace=wrap;html=1;aspect=fixed;fontSize=10;align=center;fontStyle=1;fillColor=#1ba1e2;strokeColor=#006EAF;fontColor=#ffffff;" parent="1" vertex="1">
          <mxGeometry x="220" y="550" width="20" height="20" as="geometry" />
        </mxCell>
        <mxCell id="6JLmWSIYkaWuWIYdrCiE-43" value="12" style="ellipse;whiteSpace=wrap;html=1;aspect=fixed;fontSize=10;align=center;fontStyle=1;fillColor=#1ba1e2;strokeColor=#006EAF;fontColor=#ffffff;" parent="1" vertex="1">
          <mxGeometry x="379" y="550" width="20" height="20" as="geometry" />
        </mxCell>
        <mxCell id="6JLmWSIYkaWuWIYdrCiE-44" value="13" style="ellipse;whiteSpace=wrap;html=1;aspect=fixed;fontSize=10;align=center;fontStyle=1;fillColor=#1ba1e2;strokeColor=#006EAF;fontColor=#ffffff;" parent="1" vertex="1">
          <mxGeometry x="477.5" y="550" width="20" height="20" as="geometry" />
        </mxCell>
        <mxCell id="6JLmWSIYkaWuWIYdrCiE-45" value="11" style="ellipse;whiteSpace=wrap;html=1;aspect=fixed;fontSize=10;align=center;fontStyle=1;fillColor=#1ba1e2;strokeColor=#006EAF;fontColor=#ffffff;" parent="1" vertex="1">
          <mxGeometry x="598" y="645" width="20" height="20" as="geometry" />
        </mxCell>
        <mxCell id="6JLmWSIYkaWuWIYdrCiE-46" value="10" style="ellipse;whiteSpace=wrap;html=1;aspect=fixed;fontSize=10;align=center;fontStyle=1;fillColor=#1ba1e2;strokeColor=#006EAF;fontColor=#ffffff;" parent="1" vertex="1">
          <mxGeometry x="330" y="632" width="20" height="20" as="geometry" />
        </mxCell>
        <mxCell id="6JLmWSIYkaWuWIYdrCiE-50" value="" style="endArrow=none;dashed=1;html=1;dashPattern=1 3;strokeWidth=2;fontSize=12;fontColor=#000000;" parent="1" edge="1">
          <mxGeometry width="50" height="50" relative="1" as="geometry">
            <mxPoint x="-43" y="718" as="sourcePoint" />
            <mxPoint x="817" y="718" as="targetPoint" />
          </mxGeometry>
        </mxCell>
        <mxCell id="6JLmWSIYkaWuWIYdrCiE-55" style="edgeStyle=orthogonalEdgeStyle;rounded=0;orthogonalLoop=1;jettySize=auto;html=1;startArrow=none;startFill=0;fontSize=10;" parent="1" source="6JLmWSIYkaWuWIYdrCiE-57" edge="1">
          <mxGeometry relative="1" as="geometry">
            <mxPoint x="100" y="770" as="sourcePoint" />
            <mxPoint x="195" y="459" as="targetPoint" />
            <Array as="points">
              <mxPoint x="59" y="740" />
              <mxPoint x="150" y="740" />
              <mxPoint x="150" y="459" />
            </Array>
          </mxGeometry>
        </mxCell>
        <mxCell id="6JLmWSIYkaWuWIYdrCiE-65" value="&amp;lt;&amp;lt;Update Cache&amp;gt;&amp;gt;" style="edgeStyle=orthogonalEdgeStyle;rounded=0;orthogonalLoop=1;jettySize=auto;html=1;entryX=0;entryY=0.5;entryDx=0;entryDy=0;startArrow=none;startFill=0;fontSize=10;" parent="1" source="6JLmWSIYkaWuWIYdrCiE-54" target="6JLmWSIYkaWuWIYdrCiE-64" edge="1">
          <mxGeometry x="-0.1138" relative="1" as="geometry">
            <Array as="points">
              <mxPoint x="464" y="788" />
              <mxPoint x="464" y="939" />
            </Array>
            <mxPoint as="offset" />
          </mxGeometry>
        </mxCell>
        <mxCell id="6JLmWSIYkaWuWIYdrCiE-54" value="&lt;font color=&quot;#000000&quot;&gt;Event Data &lt;br&gt;Processor&lt;/font&gt;" style="aspect=fixed;perimeter=ellipsePerimeter;html=1;align=center;shadow=0;dashed=0;fontColor=#4277BB;labelBackgroundColor=#ffffff;fontSize=12;spacingTop=3;image;image=img/lib/ibm/management/process_management.svg;fontStyle=1;labelPosition=center;verticalLabelPosition=top;verticalAlign=bottom;" parent="1" vertex="1">
          <mxGeometry x="387.5" y="763" width="70" height="70" as="geometry" />
        </mxCell>
        <mxCell id="6JLmWSIYkaWuWIYdrCiE-66" value="&amp;lt;&amp;lt;Query Data&amp;gt;&amp;gt;" style="edgeStyle=orthogonalEdgeStyle;rounded=0;orthogonalLoop=1;jettySize=auto;html=1;startArrow=none;startFill=0;fontSize=10;entryX=1;entryY=0.5;entryDx=0;entryDy=0;" parent="1" target="6JLmWSIYkaWuWIYdrCiE-64" edge="1">
          <mxGeometry relative="1" as="geometry">
            <mxPoint x="627" y="788" as="sourcePoint" />
            <mxPoint x="597" y="940" as="targetPoint" />
            <Array as="points">
              <mxPoint x="600" y="788" />
              <mxPoint x="600" y="940" />
            </Array>
          </mxGeometry>
        </mxCell>
        <mxCell id="6JLmWSIYkaWuWIYdrCiE-56" value="GlobalCatalogAPI" style="outlineConnect=0;dashed=0;verticalLabelPosition=top;verticalAlign=bottom;align=center;html=1;shape=mxgraph.aws3.api_gateway;fillColor=#D9A741;gradientColor=none;fontSize=10;fontStyle=1;labelPosition=center;" parent="1" vertex="1">
          <mxGeometry x="617" y="755" width="90" height="86" as="geometry" />
        </mxCell>
        <mxCell id="6JLmWSIYkaWuWIYdrCiE-59" value="&lt;b&gt;&amp;lt;&amp;lt;Process Data&amp;gt;&amp;gt;&lt;/b&gt;" style="edgeStyle=orthogonalEdgeStyle;rounded=0;orthogonalLoop=1;jettySize=auto;html=1;startArrow=none;startFill=0;fontSize=10;entryX=0;entryY=0.5;entryDx=0;entryDy=0;" parent="1" target="6JLmWSIYkaWuWIYdrCiE-54" edge="1">
          <mxGeometry relative="1" as="geometry">
            <mxPoint x="96" y="794" as="sourcePoint" />
            <mxPoint x="387.5" y="804" as="targetPoint" />
            <Array as="points">
              <mxPoint x="242" y="794" />
              <mxPoint x="242" y="798" />
            </Array>
          </mxGeometry>
        </mxCell>
        <mxCell id="6JLmWSIYkaWuWIYdrCiE-57" value="Event Listener/&lt;br&gt;Scheduler" style="outlineConnect=0;fontColor=#232F3E;gradientColor=none;fillColor=#BC1356;strokeColor=none;dashed=0;verticalLabelPosition=bottom;verticalAlign=top;align=center;html=1;fontSize=12;fontStyle=1;aspect=fixed;pointerEvents=1;shape=mxgraph.aws4.event;" parent="1" vertex="1">
          <mxGeometry x="20" y="749" width="78" height="78" as="geometry" />
        </mxCell>
        <mxCell id="6JLmWSIYkaWuWIYdrCiE-58" value="&amp;lt;&amp;lt;&lt;br&gt;Listen&lt;br&gt;to Events&lt;br&gt;&amp;gt;&amp;gt;" style="text;html=1;align=center;verticalAlign=middle;resizable=0;points=[];autosize=1;fontSize=10;fontStyle=1" parent="1" vertex="1">
          <mxGeometry x="150" y="720.06" width="60" height="50" as="geometry" />
        </mxCell>
        <mxCell id="6JLmWSIYkaWuWIYdrCiE-60" value="" style="aspect=fixed;html=1;points=[];align=center;image;fontSize=12;image=img/lib/mscae/Cache_Redis_Product.svg;" parent="1" vertex="1">
          <mxGeometry x="482" y="910" width="50" height="42" as="geometry" />
        </mxCell>
        <mxCell id="6JLmWSIYkaWuWIYdrCiE-61" value="" style="endArrow=none;dashed=1;html=1;dashPattern=1 3;strokeWidth=2;fontSize=12;fontColor=#000000;" parent="1" edge="1">
          <mxGeometry width="50" height="50" relative="1" as="geometry">
            <mxPoint x="-41" y="880" as="sourcePoint" />
            <mxPoint x="819" y="880" as="targetPoint" />
          </mxGeometry>
        </mxCell>
        <mxCell id="6JLmWSIYkaWuWIYdrCiE-62" value="" style="aspect=fixed;html=1;points=[];align=center;image;fontSize=12;image=img/lib/mscae/Cache_Redis_Product.svg;" parent="1" vertex="1">
          <mxGeometry x="533.5" y="910" width="50" height="42" as="geometry" />
        </mxCell>
        <mxCell id="6JLmWSIYkaWuWIYdrCiE-63" value="" style="aspect=fixed;html=1;points=[];align=center;image;fontSize=12;image=img/lib/mscae/Cache_Redis_Product.svg;" parent="1" vertex="1">
          <mxGeometry x="508.5" y="945" width="50" height="42" as="geometry" />
        </mxCell>
        <mxCell id="6JLmWSIYkaWuWIYdrCiE-69" value="Source&amp;nbsp;&lt;br style=&quot;font-size: 12px;&quot;&gt;Systems" style="rounded=0;whiteSpace=wrap;html=1;fontSize=12;align=center;rotation=90;fontStyle=1;verticalAlign=middle;horizontal=1;fillColor=#fff2cc;strokeColor=#d6b656;" parent="1" vertex="1">
          <mxGeometry x="707" y="65.12" width="85.25" height="35.88" as="geometry" />
        </mxCell>
        <mxCell id="6JLmWSIYkaWuWIYdrCiE-70" value="Publisher&amp;nbsp;&lt;br&gt;Side" style="rounded=0;whiteSpace=wrap;html=1;fontSize=12;align=center;rotation=90;fontStyle=1;verticalAlign=middle;horizontal=1;fillColor=#fff2cc;strokeColor=#d6b656;" parent="1" vertex="1">
          <mxGeometry x="708" y="258.06" width="85.25" height="35.88" as="geometry" />
        </mxCell>
        <mxCell id="6JLmWSIYkaWuWIYdrCiE-72" value="Consumer Side" style="rounded=0;whiteSpace=wrap;html=1;fontSize=12;align=center;rotation=90;fontStyle=1;verticalAlign=middle;horizontal=1;fillColor=#fff2cc;strokeColor=#d6b656;" parent="1" vertex="1">
          <mxGeometry x="707" y="770.06" width="85.25" height="35.88" as="geometry" />
        </mxCell>
        <mxCell id="6JLmWSIYkaWuWIYdrCiE-73" value="Publisher&amp;nbsp;&lt;br&gt;Side" style="rounded=0;whiteSpace=wrap;html=1;fontSize=12;align=center;rotation=90;fontStyle=1;verticalAlign=middle;horizontal=1;fillColor=#fff2cc;strokeColor=#d6b656;" parent="1" vertex="1">
          <mxGeometry x="708" y="590" width="85.25" height="35.88" as="geometry" />
        </mxCell>
        <mxCell id="6JLmWSIYkaWuWIYdrCiE-74" value="Caching&lt;br&gt;Layer" style="rounded=0;whiteSpace=wrap;html=1;fontSize=12;align=center;rotation=90;fontStyle=1;verticalAlign=middle;horizontal=1;fillColor=#fff2cc;strokeColor=#d6b656;" parent="1" vertex="1">
          <mxGeometry x="705" y="911.1199999999999" width="85.25" height="35.88" as="geometry" />
        </mxCell>
        <mxCell id="t8IpOal6ys61NDevFq2E-3" value="" style="rounded=1;whiteSpace=wrap;html=1;labelBackgroundColor=none;fontSize=12;fontColor=#000000;" vertex="1" parent="1">
          <mxGeometry x="840" y="13" width="115" height="983" as="geometry" />
        </mxCell>
        <mxCell id="t8IpOal6ys61NDevFq2E-5" value="Operations&lt;br&gt;Tools" style="rounded=0;whiteSpace=wrap;html=1;fontSize=12;align=center;rotation=0;fontStyle=1;verticalAlign=middle;horizontal=1;fillColor=#fff2cc;strokeColor=#d6b656;" vertex="1" parent="1">
          <mxGeometry x="855" y="52.06000000000001" width="85.25" height="35.88" as="geometry" />
        </mxCell>
        <mxCell id="t8IpOal6ys61NDevFq2E-6" value="" style="shape=image;verticalLabelPosition=bottom;labelBackgroundColor=#ffffff;verticalAlign=top;aspect=fixed;imageAspect=0;image=data:image/png,iVBORw0KGgoAAAANSUhEUgAAAKMAAACiCAYAAAAtMH0lAAAAAXNSR0IArs4c6QAAAARnQU1BAACxjwv8YQUAAAAJcEhZcwAADsMAAA7DAcdvqGQAAAxTSURBVHhe7Z3drxVXGcb9w4ottBd4Yb0wXpE0wTQ1MX401Zjm0C8pWMWoDVZMS8ViwklI24sSosek321IU9NGiVVr2gvooQV6QOBAD1A4o89hLzMd1pp5Z2Z9PO+c95c8gT17ZvZmzY/ZM++aWfOlyjBIMBkNGkxGgwaT0aDBZDRoMBkNGtTKeOXzqvrrsdVq/xvXq/sPXqvuO7A+89Dz19faAG2BNtGMOhnR6NgItz/2ucUTtA3aSCNqZDy2tLq2F/BtAMvNQVuhzTShQsa3P1ytvvYrf6NbwkGboe20QC/jy+9dr77yc39jW7qDtkMbaoBaRhz7+BrY0j//OMG/h6SVEWeGW5+yE5VYuWfftVnL8kIrI8oVvka1DM9zb3P/XFPKeOZiZceJCYITGrQtK5QyWgknXR5f4N070smIA21fI1ri5YOTnCczdDLiQNvXgJZ4QS8NI1QyLhy1n+dcefN9vp9rGhlRyvnGbn/DWeJny55rdBdW0Mj49Ku2V8yd+SNce0cKGT85t2qlnAJBmzOVeihktFJOuew6zLN3LC6j9T+XD0upp7iMVsopn+/s5yj1FJXx0Lv288wShlJPMRmtlMMVbIvSpZ5iMu550faKbMGVUiUpIqOVcjhTutRTREYr5fBmxwvl9o7ZZbRSDn9KlXqyy2ilHP6UukUhq4xWytGTEncUZpNxecVKOZpSotSTTUYr5egLrqTKSRYZMcyGlXL0JXepJ4uMVsrRG2y7XCSXEWO9+P6RpYP/9XtfuTGc3JjsfeVatXnXFe9nuOD4y7dsPbiUy7csQ3KNRpFcRsZSDkSMMSASDvB/+MxStWHbiWrTzsvez8K9ytK6HaT0raN0cpV6ksqIEQx8/7iSiSfiavWDZ05Xt8wdX4tPyD4iOliFxM1yqUkmI2MpJ5WIPiGHiOhgFDJHqSeZjGylnNQiukDIO39xeXSXGqOQ2KYpSSIjWyknl4jI5u2L1b8/vjpbYhxsQqIdccVVKpLIyFTK0Sqig03IlKWe6DJiw/v+ESWiXUQHm5CpBrCPKiMOcFlKOVMR0cEkZKpST1QZWUo5UxPRwSQkrsCKTTQZ0YfJUMoZKiJKUd/8zZJXuBTZ+dyZ2Sf3g0VIbGu0WUyiychQytEioot2IWOXeqLIiJoaRPB94VzRJqKLZiHR5jEffBRFxtKlHK0iumgWMmapZ7SMGInA9yVzRbuILpqFHNL+PkbJWLqUMxURXbQKGavUM0rGkqWcqYnoMljI1/3tlCsxnjEzWMbSpZwpiugyVMgnFla8bZUjcGHsLQqDZSxdyunLEBH3vXR+tnSYt95fqTY99JF3eQTvvf7eZ53F82aGCPnHdy5Wtz1y1tteOTK21DNIRoZSTh9Kioh5gKQ3p5m+QkJGLFdKSDgx5tK5QTIyXJUjhUFER2ohnYxIKSHHlHp6y1i6lOMigUlER0oh6zIipYQcOvBoLxlRymF57K6EbfPnv7BxupJaRMcQIV/826XZ0mGaMiIlhESpZ8gtCr1kZLrBSsL39p29aeOEkktER18hIVoXPhmREkIOKfWIZcRpO24y8n1wiUiQyphbREcfIcfIiOQWcsjjhMUyMlyVU48EiYylRHRIhRwrI5JbyL6lHpGMOF33fVjJSOiScffh/8zmDPP341daRURQRxwDhPzWb0961+0SQ0bk1oc/9bZnqvQp9YhkZCjlNCOhS0bJBpbsufA+5hsDzph963aJJSOSU8g+pZ5OGRn3ioiEGDKCHELmlBHJKaR079gpI+NeEZEQS0aQWsjcMiK5hJTuHVtlZN0rIhJiyghSCllCRiSXkJK9Y6uMjy9w7hURCbFlBKmELCUjkkNIyZl1q4x4wKFvxQyRkEJGkELIkjIiqYWUXIDbKiNTkbsZCalkBLGFLC0jklpIXCvQRlBGLOhbIUskpJQRxBSSQUYkpZBddxIGZcTQub4VskRCahkBRLvzsRPe9btIenlYZERSCdk1Rk9QRgx95lshSyTkkLFLIm17RpcUQnaNDR6UEZcA+VbIEgmpZYwlImCTEYktZNfYjq0nMAxj54QiIaWMMUUEjDIisYTELQldtMpopR0/sUUErDIiMYS878DI0s78ESt6N0khImCWERkrpORi21YZcXFk6bsAQ5EQW8ZUIgJ2GZGhQsIhyW0IrTIC1i5BCTFlTCki0CAjsibkT656t0ko0otsO2W0S8jSiwi0yIh8+cFTvYSMdgkZ2PHCNC+ulVzpjSGSp3Sld6xIhYQ7UkQyMh47SuiSEVlP98DETpeQcKbPTVkiGQHbmbUEiYzIerg7MFXahIQzfRDLiLOhLXt46o4SpDIiuYXsIyLCKiPiExKu9L2RXywjYBnaBJGwbf6ct/FCySVkXxGRoSNK5EpTyCFDnPSSEdx/UM/wJssrq9XWX3/ibbxQUgs5REScaUsoKSPihIQjQ+gtI07TGU5mpCyvXKcRMqWIoLSMyB3bT4tLOU16ywgYRpfoA4OQqUUEDDL+8lB3uSzEIBlxFXjpK3r6UlLInCPX+taVK1/duVidv9T/WNExSEZQekSyYWN69xeyRIaICFDE960vV549sjz7JsMYLCPQ+dgNbiGHioi9uG99uXLX7pOzbzKcUTLingafKLkyNSG1iogcPXZl9m2GM0pGUHr4k6kIqVnEB+aHffcmo2Vk6LfWLqRmEXGC9umF4SctdUbLCFie8KlRSM0iIvgesYgiI/ogGW7e0iakdhG//rOPq8tX+7d3iCgyApZ+ay1CahcReflod395H6LJCHAHmE+Q3BkqZBNJr8nm7YtrF+DmgEnEe393evat4hFVRqZbFKYmJJOImx48Xv3ro/GlnCZRZQRMN3BNRUgmEZEx/c9tRJcRpR6mofS0C8kmIvqfY5VymkSXETA9SQvRKiSbiMiB1y7Mvl18ksiIUk/JfmtftAnJKGKM/uc2ksgIsOF9UpSMFiEZRUT+8sHl2TdMQzIZAeNjO9iFZBXxR/uXZt8wHUllxHh82Pg+KUrmhpDjD8JjC8kqYsz+5zaSygiefpVv74hAyO///lz13b2nRqVrJAgEQvqWrUeynlJ58s/nZlszLcllZOm3DgUDGfk2gOVGUMqJ2f/cRnIZwcJRzr2jiwkZTuz+5zayyAjYSj3NmJA359tPnpptvTxkk5F1aL16TMgvJkX/cxvZZAS7DnP/XCMm5I2k6n9uI6uMzMMy13Prw0veDbRekrL/uY2sMgK2futQbntEPoLZ1JKy/7mN7DKi1LP1Ke6TGZf1KGTq/uc2sssImIbW68p6EzJ1/3MbRWQEjP3WoawXIXP0P7dRTEaWofWkmbqQufqf2ygmI2AYWq9Ppixkrv7nNorKyDC0Xt9s3H7BuzE1J2f/cxtFZQSH3tW1d0SmJuSf3ukevD4HxWUE7P3WvkxFyLufKFfKaUIhI57Q7tvg7JmCkLn7n9ugkBEwPhJOEs1C/vT5s7PW54BGRi391r5oFBJXn5cu5TShkREwP2y9KxsfXa42zIUHmmdLqf7nNqhkZL9FoSsbH72oQkj0PzOUcppQyQg09Vv7okHIN//pf3pXaehkBCxD6w0Ns5Cl+5/boJRRwy0KXWEUEv3Pi2f+dyxECqWMQFu/tS9sQmKQAGZoZdR+MuOyccelasO2Ra8cOcPU0xKCVkag/WTGZdOOz4oKiZ/nD0/GGaYvJdQyAs21x3pKCYniNuvZcxN6GQH7iBTS5BYSj8Zg6nvuQoWMAD/ZW/boLvkguYRECYetu68LNTI6cKur9hOblELiOX6a9oZ11MnowBNdISZGqUCRXFvu/cPK2lg2Y/Pjg2fWbhnAcSFzDVGCWhmN6WEyGjSYjAYNJqNBg8lo0GAyGjSYjAYNJqNBg8lo0GAyGjSoknFubu6mpCLX5zian5HjM9lQJ2MucsuxHuVrMgkZ3fTQnwB/d3H45nM0p/leuzjq0+rTgW+6+3v9vfo0h+99R9t72lD9M+2QvK7jXjfnqxNaBoTeGzK9ax4Qeq9tGY1Mas/okL4OrQ/gvXrqNN9z77s/HX2mh+YBkuVB87U2TMYA9fe61ucIzSeZHpoHSJYHzdfaMBkDtK1Dur4+00PzAMnyoPlaG6qPGV3juz8dzdeguQzwzecIrcPh1hWaVp8OfNND87i/O3zzOdwyLppRJSM7pWUwGY3/U0IGt0fULiIwGQ0aTEaDBpPRIKGq/gvyJgMhif98ogAAAABJRU5ErkJggg==;" vertex="1" parent="1">
          <mxGeometry x="847.64" y="130" width="100.62" height="100" as="geometry" />
        </mxCell>
        <mxCell id="t8IpOal6ys61NDevFq2E-8" value="" style="group" vertex="1" connectable="0" parent="1">
          <mxGeometry x="850" y="557.44" width="104.42" height="102.56" as="geometry" />
        </mxCell>
        <mxCell id="t8IpOal6ys61NDevFq2E-4" value="" style="shape=image;verticalLabelPosition=bottom;labelBackgroundColor=#ffffff;verticalAlign=top;aspect=fixed;imageAspect=0;image=data:image/png,iVBORw0KGgoAAAANSUhEUgAAAKMAAACkCAYAAAD7aZ44AAAAAXNSR0IArs4c6QAAAARnQU1BAACxjwv8YQUAAAAJcEhZcwAADsMAAA7DAcdvqGQAAAp6SURBVHhe7Z3dix7VHcf9w2pNtjfthXhReyFCQSi9qgiCpWw1hq3RolhFJfgSIoEmULAXiq/UBEtLL1K0NmBpwbSNSdyEmJjNS/Oy2Uz3+zhPnMz+5uXMnJfveeb7gS+4j8k+u2c+mefM78z8zh2FECRIRkGDZBQ0SEZBg2QUNEhGQYNkFDRIRkFDdjL+4+TN4o3DG8XTb28UD++/Men84nc3in1/2ig+PXazuLZeDlDGZCPjoc82ivt33yi+99S6YuSe59ZnYl68Ug5YhtDLiH/1P90rCfsGUuKTI0eoZTx89Gbxg2fsQVfa8/z7+QlJK+P7RzYk4shgXp0TlDJ+fkpnRF858Jd8hKSU8Wf7NEf0FfyjXj1/sxxZbuhkfOuTDXNQleFBCSgHqGQ8e6mYXQ1aA6qMy5//xf9xTSXj7g91VgwV1GjZC+M0MuKixRpExV/Y6480MmJeYw2g4i+4mMFUiBUKGTGfsQZP8R/mYnhyGTGPeeBVnRVjBlMiRpLLiHmMNWBKuKCOy0hSGTF/0UpLmjCWepLKiPmLNVBK+PzohXW6Uk8yGVXKSR+2detkMuJOZWuAlHhhK/UkkVGlHJ4w3WYWXUbMU/T4AFdYSj3RZcQ8xRoQJV1YSj1RZVQphzcMpZ6oMmJ+Yg2Ekj4MpZ5oMqqUw5/UpZ5oMupRAv6kLvVEkVGlnHySstQTXEbMQzAfsX5xhTOpSj3BZUTLDesXVniDDh4pCCqjSjn5Br2NYhNUxife1Fkx16Qo9QSTMUQpBwOERlDe89+N4pU/XC6Wnrxmvu9UgylWTILJGKJzGNa0Q/Hux5eK7z66KiEriV3qCSIj5hvWLzc2oWX8zvIXErIWTLVi4V3GkKWcGDJKyK2JVerxLuOej8JdtMSSUULenlilHq8yhi7lxJRRQt6eGKUerzLu+H3YUk5sGSXkt4lR6vEmI3YhsH4Jn0khIyIhv0noUo83GWM0gU8lIyIhw5d6vMiI/tvWD+87KWVEJOT6bCoWitEyxrwrJ7WMiIRcn03JQjBaxpgNPhlkRKYuZKhSzygZ0bg85l05LDIiUxcSUzPfjJIxdCmnHiYZkSkLGaLUM1hG3O1i/ZAhgwH423+uF5/8+6r3vPzBeVO4rkxZSKy2+WSwjDFKOVa2/+pScecvT5hipMpUhfRd6hkkY+q9Wpae+J+EJInPUo+zjNhCNlYppy0Skie+Sj3OMjLt1bK06+qmkCdNMVJlikL6KvU4yXjsK74NJiUkR3yUepxkjF3K6RsceAhgiZEqUxPSR6mnt4zYiNz6IVgiIdMHU7gx9JYxVSnHJTMhHzttipEqUxISU7gx2wn3kjGrvVqevC4hE2ZMqadTRhQ1GUo5TtkU8q7Hz5hipMqUhMTq3BA6Zcx5210JmSZDSz2tMuIRRbZSjmvu2nnWFCNVpiIkVulcaZWRtZTjmm07z5lipMoUhBxS6mmUkbHtcchbyHLnodfPm2OWMq6brTfKyNhBTDI28+Brp2dzZGvcUsX17GjKGPph/KGRjM1ARkwB2IR0OTuaMrLWFSVjM3MZ2YR02fDIlJF1613J2ExVRiYh8VHdF1NG1m0yJGMzdRmZhMQ9sH0wZbznOfubpo5kbMaScSbkzrPmWMZM35tvt8iIqx/rGzJEMjbTJCOCOqs1nrHS915HnRkXhDYZkZRC9l2rNmVkvV1MMjbTJSOSSsi+t5WZMrIuA0rGZvrIiKQQsi+mjCrt5EdfGZGYQrocM1NGxnVpRDI24yIjEktIl64TpoyAsdYoGZtxlRHZtrJmjrOvuHacaJSRcVteXOW/fuhisffgmlLLvc98aQrXle0rF8yx9hHXPWQaZQSMjxswdpLIPaGEdN0/plVG1k3LJaT/+BZyyM5arTKCh/dz1hwlpP/4EtJ1rjinU0bWK2tkadcVutYmuceHkEO36OiUEbDWHRHGXju5Z4yQQ559mdNLRpxyWderEQnpN3cuH581ZbXGuiu4zhhKLxkBe1cJCek3Q4TE9cUYesuIUy97vx0J6TeuQrqWcur0lhGwdyJDJKTf9BVybAcy4CQjyOHBfgnpN11C4qJlSCmnjrOMsTciGhoIic4N1uAq7mkT0vVh/SacZQQhd9v3GbQQkZD+AiGx2FAdY1/9vMEgGXExw7hubUVC+g1WvapC4jrCF4NkBLG29fWRPkKunhtYqSVhyC1kQzMXckxjUIvBMoIcWivP0yWkZHTL0o4To1omW4ySkXnd2kqbkJLRLS++83X5zv4YJSN4+u18Pq6RJiElY//cvetEcfW637MiGC0ja8eytlhCSsb+ee9jD0VFg9EyAvZ1azO1XREkY7/85KVT5Tv6x4uMKPU88Go+FzO3UhFSMvbLP49fK9/RP15kBKyPKHSmFFIyduepN86W7xYGbzKCbBvSbwq5ei7vx2BDy7i043hx5oLfumIdrzKi1JPbxcw8krE9v/1orXyncHiVEeS6iZFkbM59z34ZpJRTx7uMLDv1u0YyNufQkcvlu4TFu4wAuyNZB5w5ktHOI/vOlO8QniAygpzWrRHJuDW4aDm6Gq6UUyeYjOjjbB101rz4Xt49fIb22mnLb97yv/7cRjAZAeMuW42prchMPVh/vnItbCmnTlAZs1u3lpC38ubhi+VRjEdQGQFaXZgHnjUSsvjxC+HWn9sILmNOjyjcysSFPHIs3kVLleAygizXrScq5KMHwq4/txFFRsDaWq81ExMyxvpzG9FkzO0RhVuZkJB7PzxfHq00RJMR5LpuPQUhf/jrk1HWn9uIKiNKPTmuW8+yKSR2KbUO5CIk1vpzG1FlBFk+olDJIgr50J7T5dFJS3QZQW7r1vUskpBLj4V9lMCFJDLm0FqvK4siZOz15zaSyAiyfUShktyFxPpzylJOnWQy5tJarys5C7n/jxfKo8FBMhlBLq31upKjkKnWn9tIKmOW69YNyU3Iv35+tTwKPCSVERz6bDHOjkguQv5831fl6HORXEbAuJ3w0GAfZ0sAlqRef26DQsZs160bwizkKx+kXX9ug0JGwLwl3JAwChmqlZ0vaGTMsbVeV9iEPPj3MK3sfEEjI8h93doKi5AhW9n5gkrGbFvrdYRBSJb15zaoZASfHlusi5l5Ugr50ru8Fy1V6GQEufUJ75sUQmKlhfmipQqljFnfhNuRmEKippjDx/McShkBao/MG66PybaVNVMen/n+ygnKJb82aGUEuLPn/t2Ld0GDbF+5YErkI/c9u1ocPXW9HMV8oJYR4CN7UeeQvoXExzJull27zLnc1wW9jHPwsb0IN+TW40NIfCTjipl1zbkv2chYBe320JAUfXwWIXsOXp6tGbsGc8IcP46byFJGsZhIRkGDZBQ0SEZBg2QUNEhGQYNkFDRIRkGDZBQ0SEZBg2TcZHl5eUtEfCRjBUmYFslYoS7j/Ovq6/jveapYr1uviWYkY4W6NF0izf+f9Wes7yXakYwV+giE16qZv1an/uesPyNuRzJWqAvT92tLNOs10Y5krNBXvjnzry3xuv6u2IpkrNBHILxWzZy+r4lmJKOgQTIKGiSjoEEyChokoyChKP4PIlPy/zvyemwAAAAASUVORK5CYII=;" vertex="1" parent="t8IpOal6ys61NDevFq2E-8">
          <mxGeometry width="96.89381386138615" height="97.48277227722774" as="geometry" />
        </mxCell>
        <mxCell id="t8IpOal6ys61NDevFq2E-7" value="Tracing" style="text;html=1;strokeColor=none;align=center;verticalAlign=middle;whiteSpace=wrap;rounded=0;fillColor=#ffffff;" vertex="1" parent="t8IpOal6ys61NDevFq2E-8">
          <mxGeometry x="27.22928316914698" y="82.2510891089109" width="43.77279396352968" height="20.308910891089113" as="geometry" />
        </mxCell>
        <mxCell id="t8IpOal6ys61NDevFq2E-9" value="" style="shape=image;verticalLabelPosition=bottom;labelBackgroundColor=#ffffff;verticalAlign=top;aspect=fixed;imageAspect=0;image=data:image/png,iVBORw0KGgoAAAANSUhEUgAAAKEAAAChCAYAAACvUd+2AAAAAXNSR0IArs4c6QAAAARnQU1BAACxjwv8YQUAAAAJcEhZcwAADsMAAA7DAcdvqGQAAAybSURBVHhe7Z3trx1VFcb9w0SgfoEPSoz4wZCYkBhJCCRGE6PXCoilSCvUFIJW3myUKhEikKZCAqUqNAiBSGOJvEgofbmFcsvtG5fb29uxz+FMmDt3zZ699+y91tpz1pM8uefMmTPnnj2/s2f2WvvlS5XJJCyD0CQug9AkLoPQJC6D0CSuIiFcOFtVL761Wj24b7X6waMXZtZbdq9Wj7+yWr159OK0ZMpUURA+c2C1uu7+C9VX71wxEwaU84vlAVkEhK/872L1vYcNPh9fvXWluv+51erM0rTwCpB6CHftXyUL2+z29b+7UEytqBpC/KKpAjb7Gbcu7x7XD6JaCHf+0wBM4W9tX1F/aVYJ4aGPL07ubahCNYcbVxTNUgkhwg9UYZrjrfmyrA5CxP+oQjQP8007L0xLWJ9UQbi8Uk3uYahCNA/33oM6L8uqILRwTF7jB44fujapgRCpOGuM5DeiDtqkBkKknKhCM6c1fuj4wWuSCgjRcqMKzJzHm57SVRuqgBAtN6qwzPmsqeeNOIRosVGFZM5rdAjRIlEILSQja3SN0yBRCC0/LGstIRsxCC0ko8PonS4tMQjRQqMKxcxrDSEbEQgtJKPLtzwhWxuKQGhd9fX534fkQjbsEFpIRqclQzasEFpIRreffl3msswKoYVkdFsqZMMGoYVkyrDEUAA2CC0kU4ZRUXAPFWWBEMly6gubdZo7ZMMCoYVkyjNmveBSdgiRJKe+pFm3OUM2WSG0kEzZxoxfHMoKIZLj1Jczl2FUIByzN2SD0EIy4zBHyCYbhGhhUV/KXJZRkWBalpzKAqGFZMbl3CGbLBBaSGZ8xvQsuZQcQgvJjNOoWHLllZNCaCGZcTtXyCYphBaSGbdRweQYCpAMQiS9LSQzfucI2SSD0EIys2FUNKkn3EwCIcYnUP+weZz+8WNp88pJILSQzOw5ZchmMIQYl0D9k+ZxG+ukpArZDIKQMyRzzbaV6oEXVieXfjNtxGg3Pcl3VUoVshkEIddiNwCwxDXbpPTIC+fIckxtnJcUIZtoCDlDMhqnuNWs5ZWL1Te2LpBlmdopQjbREHKGZPa+abVgqG74zfHq8ltPkOWZ2kNDNlEQ4v6D+mdyGZ9nCtPND3xYfXnuAxYQsfjREEVByB2SMQjDVUPIBeKQkE0whBIhGYMwXE0IOUDEiqKxIZsgCKV6yRiE4WpDyAFibMgmCEKukEzbBmG4KAgnIN6Wr9WMaElMyMYbQsnlXw3CcHVBCF9x20mynFP418+E14beEEr2kjEIw+WCEM4JYmjIxgtCTAlBfRiXDcJw9UEI5wIxdFlbLwile8mUBiEyFrf++ePJif76nUert4+dn77CJx8I4VwghoRseiFEi4f6EE6XBuEdjy+sOdFX3X6EHURfCOEcICKK4huycUIoFZJpuyQI/7DvFHmiAeL7H/GBGAIhnANE35CNE0INtSBcCoTPvXGOPMG1r916rJo/GRnRDVQohPAVP/+ELP9Y+9aGnRBqqQXhEiD8zwfL1YZbDpMnt2mAuHA6/7RrMRDCV95+mjwHsfapDTsh1FILwrkgRAPisZdOVw8/f2oCUaxQu+Fy2z6hv3ryJLn9+nvnqzNLcdkFX8VCCKcE0ac27IQQ3bepg0o4F4TtE/XXf52ZvuIvwHTdtvk1x4HROIHQIOkCET+CXBoCIZwSxL6WMgkhyKUOJuUcEKL2owoftZevABF1srGtCdjr731GXqp/+PuPsoE4FEI4FYi79kdAqG3tudQQ4tJLFXptwOFzuWyHYmDUitR7X35rqRPEHEoBIZwCRKzc4BIJIapP6mBSTgkhAEHjgCrwpgGTqyVLhWJw2XW9p6v1XF+6UyoVhPBQEJHscImEENUndTApp4TwJ388sa6QkdVob4MBFS6lbf3j4Kfr9kUt59O42fPa2XXvhbfv/mS6RxqlhBAeAiI6vrhEQqhterdUEFIAoBbCfRkFJwy48L5aXaEY1HK+6gpo4z41lVJDCF/5i7Pk+ekzOry6REIo3WGh7RQQIlvRhgeX3GbD4LfPLq55vWnUVLjUUrUmoApVV8MIIaMUygHhZXOHo0DsG4NCQoi+g9TBpDwUQoDWDqMASCqNhlqPqunq97S3oaNCrNASbx8Pbta8scoBIRwD4pbdFqKZ1GLtwnSdaFxyqdhe2zjRQ0MsVAsbxn3nEOWCEA4FMSpEA2HmJeqAEh4CIdWI8Km9cOmlgtC10cJOlfVAmKZ9fNS6COvEKieEcAiIfZ1cOyHUFKaJhRA52naNFgIP9qNOZl8oJlSoTbtAjE0n5oYQ9gHRZ0xyJ4SQltTdXU8tTW7kQ41ZCJqFFntSm/duXWGboQKISOU1/9/686jv1mefWGgK94Ho07nVCaGaTgybz0+GK1KFEOIhLU/kgJFbztkDBjUvBaJ2A8QNmz5dd94Gd+WCcADEeNoHl/IQEBEHLEGAnKsWS+nLfnpkHYiYKMFHTgghbSk89ACmCsFlxPY4+vClEu43SwexL1XXVC+EkKaWMhwCIgCMvbmXFGKYPmEiba5BxNJyvvKCEE1sqYHvcIqMyayJo3Xc5Y1/8u8OB3lBCElNAQIbhOGSghARiBOnw+Kn3hBi8WWpMScGYbikIHzk+fAIhDeEkNRM/QZhuCQgvHbLfPXZ+fBzFQQhJDEbg0EYLgkI9x7w787WVDCEEgtqG4Th4obw+w/FD1MIhhDinqHLIAwXJ4RojPz3cHwYLApCTITIGbKx2fvD1c6b5/Q9Tw8bmhAFIYS1RShgcjjH8qZjFjpDcAW6v3bHkerUuWHnJxpC5JW5Qjaodd+ZT9d1auzq6iibw3/ZHz5hQFvREEKceeWrtixX9+75fMoObvv2vqHey23Oy/B3th+ffvNhGgQhhE6LFDQ5vGHzcvWVjfxdndCZwEfUe8fsA4fS5OQHQ8g9W4MEiAbhem/clW7A/mAIIe68MjeIBuFax+SHXUoCIUI23HllThANwrXGvWdKJYEQkhgKwAWiQfiFv3nXsaj8sEvJIETIRiKvzAGiQfiFY/PDLiWDEJKaPiQFiEhztcMdtVOEaCQ6FKT2jTvyTGOXFEJIauWnISAiuzB0JoU+YYwL9dmlGCPqhuSHXUoO4fyi3FCAISDmGEvcVN/M/to9ND/sUnIIoQf3ydSGMFdjZZaM/HDKkExbWSDkzCtTNhDT+tG/p5murktZIIT2HpSrDeEJiD/jy6OO1anywy5lgxDCao8UIGzefP4SiOW3SiX96rt575WhrBCqWAXAQIz2j3bGTwAaoqwQQpilk4SD0wZisFPnh13KDiH3UIBOG4hB3vHs4vQM5ld2CCFNU8wZiP1GSCZ1ftglFggRslGzVp6B2Osc+WGXWCCEVE0xZyB2+sYdH07PGJ/YIISk8sqkDUTSufLDLrFCiPVRVDRSahuIa5wzP+wSK4SQ5BRzpA3EiXPnh11ih1A6r0zaQMyeH3aJHUJIaoo5p2cYRI78sEsiEEISQwF6fQnEFEtVlGaO/LBLYhBKTDHn61kCkSs/7JIYhBCWpacg0OBZABH54aMn5ZfWEIVQTV65w2MH8b49fPlhl0QhhLAMKQWAFo8VRO78sEviECJko2npMspjBPFvCRb2TiVxCCFtS5dRHhOI371PNiTTlgoIIW1Ll1EeC4gS+WGX1ECoYiiAh0sH8ZdPhC35xSE1EELq8sodLhVEzDQhlR92SRWEElPMxbpEECXzwy6pghBSMxTAwyWBiPywlpBMW+oghFTmlTtcCoip5pfOIZUQltJIqR2zGj2ntWRGuqQSQqiURkptrSB+++64lTc5pRZCZFJUjUnxsDYQAeCRhUsFqVxqIaylYgaHAGsBEaPmhi73xSX1EEJYR++abfRJ12hJENE9C/eA2i/BTRUBIXRm6fP7RM1dv5rmBhGBaIyW0xiM7lMxENYCjFj/GLUj7hmxrJlW3/zQ4uSymMuADpOyo3t+KZdeSsVBaBqfDEKTuAxCk7gMQpO4DEKTuAxCk7gMQpO4DEKTuAxCk7gMQpO4Rgnh3NzcxE1R20JUvzfmGEM+dxZkEAbKgEqv0ULo+lsLz2vXam5rb6//Uq9R2+q/7e1NN+V6bcyaWQjbJ5naB2pv73q9VnM/6j2u/ZtqPx+zRg0h5PMYqp/3be96vRa1X9djiNofaj8fswzCqernfdu7Xq9F7df1GKL2h9rPx6zRQ9hUc3vXSe/b3vV6LWq/rscQtT/Ufj5mzSyEEJ7XrkXt0/wLUe+httXqegy1X2t6VjRKCMcgg9AkolmsBSGD0CQug9AkLoPQJKyq+j/cu35BM37MhgAAAABJRU5ErkJggg==;" vertex="1" parent="1">
          <mxGeometry x="850" y="276" width="101" height="101" as="geometry" />
        </mxCell>
        <mxCell id="t8IpOal6ys61NDevFq2E-10" value="" style="shape=image;verticalLabelPosition=bottom;labelBackgroundColor=#ffffff;verticalAlign=top;aspect=fixed;imageAspect=0;image=data:image/png,iVBORw0KGgoAAAANSUhEUgAAAJwAAAClCAYAAACpzZQoAAAAAXNSR0IArs4c6QAAAARnQU1BAACxjwv8YQUAAAAJcEhZcwAADsMAAA7DAcdvqGQAAAqzSURBVHhe7Z3rqx3VGcb7h3mp8Yt+aP3QWhBBEUoLRUvrhyLHS+slptVeREPEKwSJEKqgobRpacXi5YNStYFeqdJTk5yTmMQYY3M9GXn2ma2z57yz5vaud71rz/ODh5i9s49n1vzOnJn3nVnrKwUhhlA4YgqFI6ZQOGIKhSOmUDhiCoUjplA4YkpWwv1n/VKx752N4qHfbBS377k42Tz96kbxyt82irWTl8qRyQf3wh0/XRS7/rhRXPvwheLqHUw91z96oXjhrY3i3IVywJzjVjgM4O7XNorrfiUPNLOYG3ddnB31vONSuE/PFMWtuy+KA8uE88h+39K5Ew7nJd95lrKNyQMv+/0V60o4DNItT1I2jXg90rkSDuds0uAxw4Krem+4EW712CVeiSoHpybecCPcPS/y6BYjqFt6woVwr/+LssUK6nS46vdCcuFwocCr0rhB4dwLyYVDlVwaJEYvODfGObIHkgqHthUO+dIgMbrBObIHkgqHQ700OEycvPV++qNcMuFQI2IZxDY4V07dgUgm3B17eaGQIjhnTkkS4VgGSRecM+PcORXmwrFfmj4pyyTmwrEMkj44d07VZzUVDody3lDpI6nKJKbCsQziKziXtsZMOBzCpY1m0gXn0tZlEjPhWAbxGesyiYlwLIP4Dc6pLcsk0YVjGcR/LMsk0YVjGSSPWJVJogrHMkg+wTm2BVGFw5ND0sYxPmNRJokmHMsg+QVP78cuk0QTDpOuSBvF+E7sMkkU4VgGyTfos8Ysk6gLh0MyDs3SxjB5JOZT++rCsQyyHIlVJlEVDofiWLeN7z8w/qdu7eOLxVX3nRK/PrMYnIPHQFW4mGUQFeFOXCguW/kfpeuYGGUSNeFil0E0haN03YLb0bXLJGrCxS6DaAsXkg5PN83n0/WcHz53trjmoXPiNmjl+Td1j3IqwlmUQWII1yTde6s+nlLvwrd+frTY9mA86bTLJKOFsyqDxBJOki4n4b758OHiirvWokqHWeO1GC0cDrnSN6mdmMIhVelyEw7ff2zptMoko4SLWQapJ7ZwyFy6HIVDYkqHSb41GCUcDrXSNxcjFsIhkC5X4RBId/WD58UxHBuNafkHC2d9N4iVcMi7//U3VWkTdeGQK+4+EkU6jTLJYOGs11GwFO6dD86Wn/CPJBwSSzpM/D2GQcKluBuEwsk0CYfEkG5smaS3cDikpphEkMLJhIRDYkiHhUeG0ls4qzJIPRROpk04ZCadMKZjMrRM0ks4yzJIPRROpotwyJU//kgc16EZugZEL+EsyyD1UDiZrsIh2tIN2SedhbMug9Sz/692wt3y2Fpx21NHssi2ez4Ut6EpmtINKZN0Fi71cpI3P36m+P5TR8VB//fh8+V3uYn0b5DvPr4u7oSpRVM6rE7dh07CeXko5qr7TxeXr2z9ia7/Cqy/z2yNlnR9yyStwqUqgzRFko7CDctXf3JCHOO+6TO5YatwHpeUrEtH4YZHS7q/H+pWJgkKl7IM0paZdHcenA0ahRsXDem6lkmCwqGiLH1xL9n2wP9n0lG48dGQrstSmY3CpS6DdA2ko3A6GStdlzJJo3A5LSn57gfnyu96E2kwmW6RnvHok7bJDUXhcpsbhMLpZox0bWUSUbicjm4IhdPPGOlCR7ktwuV2dEMoXJwMlS50lNsiXG5HN4TCxctQ6ZqOcgvCoXgnfdh7tIWrX/V6ps/dIkODmqc07qFgbmeJBeFQR5E+7D0UTt4OraCrM0Q66dfqgnC5roVF4eTt0MwQ6aQlzxeEQxNW+qD3UDh5O7TTVzppvuAF4XJdMaYu3LN/+mRUcKNmLlgKh/SRTpq6dUE4TAElfdB76sJNCWvhEEiHlqK0L6ppFc57s74pFE4WI2Zw00SbdNJD0wvC4XZh6YPeQ+FkKWKnTTppLpIF4VgW2QwvGronJN3ayZarVNRNpA96D4WTt8MqknRNN2QuCAdyLI1QOHk7LDOTbvvZL/ZJ0zOrW4TLsb1F4eTtsM7ldx6aSRe6EXOLcGDqtydtf+G4WJ/zmGvu23yuw0sg3c4/LD4nXEUUDi0Jacd6jbZwzPDgB+CjU/KvUyAKB3I6l6NwfrLnz6fKvSDTKBwuab0+IlgPhfORmx5dL86eDz+f2igcyKUQTOF85PV/nCn3QDNB4bxN89AUCpc+P9p9rBz9MEHhANoT0k72FAqXNpgy7ODxbnfYtAoHUk/V1RYKlzY7f3uyHPl2Ognn/Sl8CpcuX9t+sPVCoUon4UDMxXfHhsKly+/+EnjqWaCzcJ5nUqJwafLtnevliHens3AA96hLOzx1KFya/PPDxXHvQi/hUCbx+NwDhbPPT188UY52P3oJBzxOBaEt3N43Ts3uGMkhX99xSNyGmGnrl4boLRzw1mfVFg47MhdS3J7U1i8NMUi41WO++qwUTt6OGOnSLw0xSDjg6Sl9CidvR4x06ZeGGCycpz5rXThpUZA+qS804hlL4br2S0MMFg7gvnVJAOvUhZsSVsL16ZeGGCUc8HA7OoWTJdFMn35piNHCeXjohsLJkmilb780xGjhQOopIna8dFp8wGRoOJnNYva93a9fGkJFOA99VixWJg3WkPAq9cugDKKJinAg1dLk1WhJR+G+zJB+aQg14VAmuXFX+gsIDeko3Gbu3Xu8/L/ooSYc8NJnHSsdhdssgwztl4ZQFQ7csdfH3SSa53RTzJh+aQh14XA7upc+K6Ublht+saZWBqmjLhzw1GeldP3zyoHPyj2pTxThUCbx9DwrpesejX5piCjCAW+3o1O69uBC4f31uDcuRBMOeJv2i9KF88t9H5d7Lh5RhXtv1d/zrJROjma/NERU4YDHab8o3dZo9ktDRBfO6/OsWN9dGvgpRrtfGiK6cAALREg7PXUo3Wa0+6UhTITzPO3X1KWL0S8NYSIc8Ly0+VSli9UvDWEmHPA87dcUpYvVLw1hKpz3ab+mJF3MfmkIU+GA52m/kKlIF7NfGsJcOJRJsAC/tLO9ZNml+8EzR8u9YY+5cMDrtF/VLKt0uFCwLIPUSSIcyiQ5LK+0jNJZ9EtDJBEO5LK80jJJh37pJ5/ZlkHqJBMO5LK80rJI9+s3Py1HPh1JhctpeaXcpbPsl4ZIKhzwdDt6W3KW7sCqj+kwkgvnuc8qJUfp7nretl8aIrlwwMu0X12Tk3Qp+qUhXAgHcluFOhfpMDmPJ9wI573PKsW7dGPn442BG+FAThcQ83iVLnVHoQlXwuV2ATGPR+me+L3OjJXauBIO4FcrpRuXoavEWOBOOICCsIepv/rGg3Qpbqrsg0vhAKTLpfVVTSrpvvGzw6PXULDArXBzMGn17XtYMmkK7ty1eqZUA/fCzcFyS1h//+lXN2YCes9tz5wsvvfEEfXg5klcEEAyL+2qPmQjHFkOKBwxhcIRUygcMYXCEVMoHDGFwhFTKBwxhcIRUygcMWUSwq2srJT/FYfYX3+ZoHDElMkLh/fmqVJ9vfqe9Hr1z/p7c0LvTYlJC1d/ff73oa/3/dwUoXAV2gRpe73v56YIhavQJkjb630/N0UoXIU2Qdpe7/u5KTIZ4aqp0uX16nvS6/U/51T/Pv/380yVSQg3liZBhopD4cgW5keiuhxNr7cx9HPLBoUjplA4YgqFI6ZQOGJIUXwOJVXTdIpowOgAAAAASUVORK5CYII=;" vertex="1" parent="1">
          <mxGeometry x="855" y="420" width="95.5" height="101" as="geometry" />
        </mxCell>
        <mxCell id="t8IpOal6ys61NDevFq2E-11" value="Logging" style="text;html=1;strokeColor=none;align=center;verticalAlign=middle;whiteSpace=wrap;rounded=0;fillColor=#ffffff;" vertex="1" parent="1">
          <mxGeometry x="880.319283169147" y="505.00108910891095" width="43.77279396352968" height="20.308910891089113" as="geometry" />
        </mxCell>
        <mxCell id="t8IpOal6ys61NDevFq2E-12" value="Monitoring" style="text;html=1;strokeColor=none;align=center;verticalAlign=middle;whiteSpace=wrap;rounded=0;fillColor=#ffffff;" vertex="1" parent="1">
          <mxGeometry x="878.319283169147" y="362.00108910891095" width="43.77279396352968" height="20.308910891089113" as="geometry" />
        </mxCell>
        <mxCell id="t8IpOal6ys61NDevFq2E-13" value="Error&lt;br&gt;Reporting" style="text;html=1;strokeColor=none;align=center;verticalAlign=middle;whiteSpace=wrap;rounded=0;fillColor=#ffffff;" vertex="1" parent="1">
          <mxGeometry x="868" y="218" width="60" height="24" as="geometry" />
        </mxCell>
        <mxCell id="t8IpOal6ys61NDevFq2E-15" value="" style="group" vertex="1" connectable="0" parent="1">
          <mxGeometry x="850" y="700" width="104.42" height="102.56" as="geometry" />
        </mxCell>
        <mxCell id="t8IpOal6ys61NDevFq2E-16" value="" style="shape=image;verticalLabelPosition=bottom;labelBackgroundColor=#ffffff;verticalAlign=top;aspect=fixed;imageAspect=0;image=data:image/png,iVBORw0KGgoAAAANSUhEUgAAAKMAAACkCAYAAAD7aZ44AAAAAXNSR0IArs4c6QAAAARnQU1BAACxjwv8YQUAAAAJcEhZcwAADsMAAA7DAcdvqGQAAAp6SURBVHhe7Z3dix7VHcf9w2pNtjfthXhReyFCQSi9qgiCpWw1hq3RolhFJfgSIoEmULAXiq/UBEtLL1K0NmBpwbSNSdyEmJjNS/Oy2Uz3+zhPnMz+5uXMnJfveeb7gS+4j8k+u2c+mefM78z8zh2FECRIRkGDZBQ0SEZBg2QUNEhGQYNkFDRIRkFDdjL+4+TN4o3DG8XTb28UD++/Men84nc3in1/2ig+PXazuLZeDlDGZCPjoc82ivt33yi+99S6YuSe59ZnYl68Ug5YhtDLiH/1P90rCfsGUuKTI0eoZTx89Gbxg2fsQVfa8/z7+QlJK+P7RzYk4shgXp0TlDJ+fkpnRF858Jd8hKSU8Wf7NEf0FfyjXj1/sxxZbuhkfOuTDXNQleFBCSgHqGQ8e6mYXQ1aA6qMy5//xf9xTSXj7g91VgwV1GjZC+M0MuKixRpExV/Y6480MmJeYw2g4i+4mMFUiBUKGTGfsQZP8R/mYnhyGTGPeeBVnRVjBlMiRpLLiHmMNWBKuKCOy0hSGTF/0UpLmjCWepLKiPmLNVBK+PzohXW6Uk8yGVXKSR+2detkMuJOZWuAlHhhK/UkkVGlHJ4w3WYWXUbMU/T4AFdYSj3RZcQ8xRoQJV1YSj1RZVQphzcMpZ6oMmJ+Yg2Ekj4MpZ5oMqqUw5/UpZ5oMupRAv6kLvVEkVGlnHySstQTXEbMQzAfsX5xhTOpSj3BZUTLDesXVniDDh4pCCqjSjn5Br2NYhNUxife1Fkx16Qo9QSTMUQpBwOERlDe89+N4pU/XC6Wnrxmvu9UgylWTILJGKJzGNa0Q/Hux5eK7z66KiEriV3qCSIj5hvWLzc2oWX8zvIXErIWTLVi4V3GkKWcGDJKyK2JVerxLuOej8JdtMSSUULenlilHq8yhi7lxJRRQt6eGKUerzLu+H3YUk5sGSXkt4lR6vEmI3YhsH4Jn0khIyIhv0noUo83GWM0gU8lIyIhw5d6vMiI/tvWD+87KWVEJOT6bCoWitEyxrwrJ7WMiIRcn03JQjBaxpgNPhlkRKYuZKhSzygZ0bg85l05LDIiUxcSUzPfjJIxdCmnHiYZkSkLGaLUM1hG3O1i/ZAhgwH423+uF5/8+6r3vPzBeVO4rkxZSKy2+WSwjDFKOVa2/+pScecvT5hipMpUhfRd6hkkY+q9Wpae+J+EJInPUo+zjNhCNlYppy0Skie+Sj3OMjLt1bK06+qmkCdNMVJlikL6KvU4yXjsK74NJiUkR3yUepxkjF3K6RsceAhgiZEqUxPSR6mnt4zYiNz6IVgiIdMHU7gx9JYxVSnHJTMhHzttipEqUxISU7gx2wn3kjGrvVqevC4hE2ZMqadTRhQ1GUo5TtkU8q7Hz5hipMqUhMTq3BA6Zcx5210JmSZDSz2tMuIRRbZSjmvu2nnWFCNVpiIkVulcaZWRtZTjmm07z5lipMoUhBxS6mmUkbHtcchbyHLnodfPm2OWMq6brTfKyNhBTDI28+Brp2dzZGvcUsX17GjKGPph/KGRjM1ARkwB2IR0OTuaMrLWFSVjM3MZ2YR02fDIlJF1613J2ExVRiYh8VHdF1NG1m0yJGMzdRmZhMQ9sH0wZbznOfubpo5kbMaScSbkzrPmWMZM35tvt8iIqx/rGzJEMjbTJCOCOqs1nrHS915HnRkXhDYZkZRC9l2rNmVkvV1MMjbTJSOSSsi+t5WZMrIuA0rGZvrIiKQQsi+mjCrt5EdfGZGYQrocM1NGxnVpRDI24yIjEktIl64TpoyAsdYoGZtxlRHZtrJmjrOvuHacaJSRcVteXOW/fuhisffgmlLLvc98aQrXle0rF8yx9hHXPWQaZQSMjxswdpLIPaGEdN0/plVG1k3LJaT/+BZyyM5arTKCh/dz1hwlpP/4EtJ1rjinU0bWK2tkadcVutYmuceHkEO36OiUEbDWHRHGXju5Z4yQQ559mdNLRpxyWderEQnpN3cuH581ZbXGuiu4zhhKLxkBe1cJCek3Q4TE9cUYesuIUy97vx0J6TeuQrqWcur0lhGwdyJDJKTf9BVybAcy4CQjyOHBfgnpN11C4qJlSCmnjrOMsTciGhoIic4N1uAq7mkT0vVh/SacZQQhd9v3GbQQkZD+AiGx2FAdY1/9vMEgGXExw7hubUVC+g1WvapC4jrCF4NkBLG29fWRPkKunhtYqSVhyC1kQzMXckxjUIvBMoIcWivP0yWkZHTL0o4To1omW4ySkXnd2kqbkJLRLS++83X5zv4YJSN4+u18Pq6RJiElY//cvetEcfW637MiGC0ja8eytlhCSsb+ee9jD0VFg9EyAvZ1azO1XREkY7/85KVT5Tv6x4uMKPU88Go+FzO3UhFSMvbLP49fK9/RP15kBKyPKHSmFFIyduepN86W7xYGbzKCbBvSbwq5ei7vx2BDy7i043hx5oLfumIdrzKi1JPbxcw8krE9v/1orXyncHiVEeS6iZFkbM59z34ZpJRTx7uMLDv1u0YyNufQkcvlu4TFu4wAuyNZB5w5ktHOI/vOlO8QniAygpzWrRHJuDW4aDm6Gq6UUyeYjOjjbB101rz4Xt49fIb22mnLb97yv/7cRjAZAeMuW42prchMPVh/vnItbCmnTlAZs1u3lpC38ubhi+VRjEdQGQFaXZgHnjUSsvjxC+HWn9sILmNOjyjcysSFPHIs3kVLleAygizXrScq5KMHwq4/txFFRsDaWq81ExMyxvpzG9FkzO0RhVuZkJB7PzxfHq00RJMR5LpuPQUhf/jrk1HWn9uIKiNKPTmuW8+yKSR2KbUO5CIk1vpzG1FlBFk+olDJIgr50J7T5dFJS3QZQW7r1vUskpBLj4V9lMCFJDLm0FqvK4siZOz15zaSyAiyfUShktyFxPpzylJOnWQy5tJarys5C7n/jxfKo8FBMhlBLq31upKjkKnWn9tIKmOW69YNyU3Iv35+tTwKPCSVERz6bDHOjkguQv5831fl6HORXEbAuJ3w0GAfZ0sAlqRef26DQsZs160bwizkKx+kXX9ug0JGwLwl3JAwChmqlZ0vaGTMsbVeV9iEPPj3MK3sfEEjI8h93doKi5AhW9n5gkrGbFvrdYRBSJb15zaoZASfHlusi5l5Ugr50ru8Fy1V6GQEufUJ75sUQmKlhfmipQqljFnfhNuRmEKippjDx/McShkBao/MG66PybaVNVMen/n+ygnKJb82aGUEuLPn/t2Ld0GDbF+5YErkI/c9u1ocPXW9HMV8oJYR4CN7UeeQvoXExzJull27zLnc1wW9jHPwsb0IN+TW40NIfCTjipl1zbkv2chYBe320JAUfXwWIXsOXp6tGbsGc8IcP46byFJGsZhIRkGDZBQ0SEZBg2QUNEhGQYNkFDRIRkGDZBQ0SEZBg2TcZHl5eUtEfCRjBUmYFslYoS7j/Ovq6/jveapYr1uviWYkY4W6NF0izf+f9Wes7yXakYwV+giE16qZv1an/uesPyNuRzJWqAvT92tLNOs10Y5krNBXvjnzry3xuv6u2IpkrNBHILxWzZy+r4lmJKOgQTIKGiSjoEEyChokoyChKP4PIlPy/zvyemwAAAAASUVORK5CYII=;" vertex="1" parent="t8IpOal6ys61NDevFq2E-15">
          <mxGeometry width="96.89381386138615" height="97.48277227722774" as="geometry" />
        </mxCell>
        <mxCell id="t8IpOal6ys61NDevFq2E-17" value="Dashboards" style="text;html=1;strokeColor=none;align=center;verticalAlign=middle;whiteSpace=wrap;rounded=0;fillColor=#ffffff;" vertex="1" parent="t8IpOal6ys61NDevFq2E-15">
          <mxGeometry x="27.22928316914698" y="82.2510891089109" width="43.77279396352968" height="20.308910891089113" as="geometry" />
        </mxCell>
      </root>
    </mxGraphModel>
  </diagram>
</mxfile>
